<svg width="24" height="24" viewBox="0 0 24 24" fill="none" xmlns="http://www.w3.org/2000/svg">
<path d="M19.9688 16.0822L19.2188 19.2384C19.125 19.7072 18.75 20.0197 18.2812 20.0197C10.4062 19.9884 4 13.5822 4 5.70718C4 5.23843 4.28125 4.86343 4.75 4.76968L7.90625 4.01968C8.34375 3.92593 8.8125 4.17593 9 4.58218L10.4688 7.98843C10.625 8.39468 10.5312 8.86343 10.1875 9.11343L8.5 10.4884C9.5625 12.6447 11.3125 14.3947 13.5 15.4572L14.875 13.7697C15.125 13.4572 15.5938 13.3322 16 13.4884L19.4062 14.9572C19.8125 15.1759 20.0625 15.6447 19.9688 16.0822Z" fill="#5C8EE6"/>
</svg>
