<svg width="0" height="0" class="hidden">
  <symbol fill="none" xmlns="http://www.w3.org/2000/svg" viewBox="0 0 16 16" id="instagram">
    <path d="M4.44444 0C1.99378 0 0 1.99378 0 4.44444V11.5556C0 14.0062 1.99378 16 4.44444 16H11.5556C14.0062 16 16 14.0062 16 11.5556V4.44444C16 1.99378 14.0062 0 11.5556 0H4.44444ZM4.44444 1.77778H11.5556C13.0258 1.77778 14.2222 2.97422 14.2222 4.44444V11.5556C14.2222 13.0258 13.0258 14.2222 11.5556 14.2222H4.44444C2.97422 14.2222 1.77778 13.0258 1.77778 11.5556V4.44444C1.77778 2.97422 2.97422 1.77778 4.44444 1.77778ZM12.4444 2.66667C12.2087 2.66667 11.9826 2.76032 11.8159 2.92702C11.6492 3.09372 11.5556 3.31981 11.5556 3.55556C11.5556 3.7913 11.6492 4.0174 11.8159 4.18409C11.9826 4.35079 12.2087 4.44444 12.4444 4.44444C12.6802 4.44444 12.9063 4.35079 13.073 4.18409C13.2397 4.0174 13.3333 3.7913 13.3333 3.55556C13.3333 3.31981 13.2397 3.09372 13.073 2.92702C12.9063 2.76032 12.6802 2.66667 12.4444 2.66667ZM8 3.55556C5.54933 3.55556 3.55556 5.54933 3.55556 8C3.55556 10.4507 5.54933 12.4444 8 12.4444C10.4507 12.4444 12.4444 10.4507 12.4444 8C12.4444 5.54933 10.4507 3.55556 8 3.55556ZM8 5.33333C9.47022 5.33333 10.6667 6.52978 10.6667 8C10.6667 9.47022 9.47022 10.6667 8 10.6667C6.52978 10.6667 5.33333 9.47022 5.33333 8C5.33333 6.52978 6.52978 5.33333 8 5.33333Z" fill="#5C8EE6"></path>
  </symbol>
  <symbol fill="none" xmlns="http://www.w3.org/2000/svg" viewBox="0 0 20 12" id="vk">
    <path d="M19.4439 10.7569C18.6455 9.32 16.5889 7.59347 15.7398 6.84216C15.5074 6.63646 15.4826 6.28057 15.694 6.05309C17.3144 4.3119 18.6104 2.31123 19.0565 1.1023C19.2533 0.568255 18.8459 0.00399859 18.2719 0.00399859H16.6044C16.0548 0.00399859 15.7331 0.201266 15.5799 0.515384C14.2332 3.27491 13.078 4.46918 12.2694 5.16717C11.8167 5.55815 11.1107 5.23426 11.1107 4.63934C11.1107 3.49306 11.1107 2.01133 11.1107 0.960569C11.1107 0.450961 10.6939 0.0386537 10.1799 0.0386537L7.13379 0.00399859C6.75036 0.00399859 6.53132 0.438076 6.76147 0.742419L7.26441 1.4644C7.45368 1.71454 7.55587 2.01888 7.55587 2.33122L7.55321 5.58258C7.55321 6.14817 6.86766 6.42453 6.46068 6.02821C5.08381 4.68733 3.88909 1.94913 3.45901 0.639787C3.33461 0.260802 2.97962 0.00488718 2.57709 0.00399859L0.934523 0C0.318283 0 -0.132233 0.58425 0.0352665 1.1725C1.5361 6.44052 4.61552 11.4522 10.1035 11.9956C10.6442 12.0489 11.1107 11.6135 11.1107 11.0745V9.36577C11.1107 8.87571 11.495 8.45452 11.9891 8.44207C12.0064 8.44163 12.0237 8.44163 12.041 8.44163C13.4926 8.44163 15.1182 10.5543 15.6869 11.5424C15.8504 11.8267 16.1561 12 16.4867 12H18.6962C19.3408 12 19.7545 11.3162 19.4439 10.7569Z" fill="#5C8EE6"></path>
  </symbol>
  <symbol fill="none" xmlns="http://www.w3.org/2000/svg" viewBox="0 0 16 12" id="mail">
    <path d="M0.3125 3.96875C1.03125 4.53125 1.9375 5.21875 5.125 7.53125C5.75 8 6.90625 9.03125 8 9.03125C9.125 9.03125 10.25 8 10.9062 7.53125C14.0938 5.21875 15 4.53125 15.7188 3.96875C15.8438 3.875 16 3.96875 16 4.125V10.5C16 11.3438 15.3438 12 14.5 12H1.5C0.6875 12 0 11.3438 0 10.5V4.125C0 3.96875 0.1875 3.875 0.3125 3.96875ZM8 8C7.28125 8.03125 6.25 7.09375 5.71875 6.71875C1.5625 3.71875 1.25 3.4375 0.3125 2.6875C0.125 2.5625 0 2.34375 0 2.09375V1.5C0 0.6875 0.6875 0 1.5 0H14.5C15.3438 0 16 0.6875 16 1.5V2.09375C16 2.34375 15.9062 2.5625 15.7188 2.6875C14.7812 3.4375 14.4688 3.71875 10.3125 6.71875C9.78125 7.09375 8.75 8.03125 8 8Z" fill="#5C8EE6"></path>
  </symbol>
  <symbol fill="none" xmlns="http://www.w3.org/2000/svg" viewBox="0 0 12 17" id="adress">
    <path d="M6.625 15.6875C6.34375 16.125 5.6875 16.125 5.40625 15.6875C0.84375 9.125 0 8.4375 0 6C0 2.6875 2.6875 0 6 0C9.34375 0 12 2.6875 12 6C12 8.4375 11.1875 9.125 6.625 15.6875ZM6 8.5C7.40625 8.5 8.5 7.40625 8.5 6C8.5 4.625 7.40625 3.5 6 3.5C4.625 3.5 3.5 4.625 3.5 6C3.5 7.40625 4.625 8.5 6 8.5Z" fill="#5C8EE6"></path>
  </symbol>
</svg>