<svg width="0" height="0" class="hidden">
  <symbol fill="none" xmlns="http://www.w3.org/2000/svg" viewBox="0 0 36 36" id="certificate">
    <path d="M27.2216 9.35938L22.6825 4.82031C22.1903 4.32812 21.4794 4 20.8232 4H9.66691C8.19035 4.05469 7.04191 5.20312 7.04191 6.67969V13.0781C6.71379 13.0781 6.38566 13.0234 5.67473 12.8047C5.62004 12.8047 5.51066 12.8047 5.40129 12.8047C5.12785 12.8047 4.85441 12.9141 4.69035 13.0781C3.70598 14.1172 3.76066 14.0625 2.39348 14.4453C2.01066 14.5547 1.73723 14.8281 1.62785 15.2109C1.29973 16.5781 1.29973 16.5234 0.31535 17.5078C0.0419129 17.7812 -0.0674621 18.2188 0.0419129 18.6016C0.424725 19.9141 0.424725 19.9141 0.0419129 21.2266C-0.0674621 21.6094 0.0419129 22.0469 0.31535 22.3203C1.29973 23.3047 1.29973 23.3047 1.62785 24.6172C1.73723 25 2.01066 25.2734 2.39348 25.3828C2.50285 25.4375 2.55754 25.4375 2.66691 25.4375V31.125C2.66691 31.4531 2.77629 31.7266 3.04973 31.8906C3.32316 32.0547 3.65129 32.0547 3.92473 31.9453L7.04191 30.3594L10.1044 31.9453C10.2685 32 10.3779 32 10.5419 32H25.4169C26.8388 32 28.0419 30.8516 28.0419 29.4297V11.2188C28.0419 10.5625 27.7138 9.85156 27.2216 9.35938ZM21.0419 5.80469C21.1513 5.85938 21.3153 5.91406 21.4247 6.02344L26.0185 10.6172C26.1278 10.7266 26.1825 10.8906 26.2372 11.0547H21.0419V5.80469ZM1.8466 21.3359C2.12004 20.1328 2.12004 19.6953 1.8466 18.4922C2.66691 17.6172 2.88566 17.2344 3.21379 16.0312C4.41691 15.7031 4.74504 15.4844 5.62004 14.6094C6.16691 14.7734 6.54973 14.8281 7.04191 14.8281C7.47941 14.8281 7.86223 14.7734 8.4091 14.6094C9.22941 15.4844 9.61223 15.7031 10.8154 16.0312C11.1435 17.2344 11.3075 17.5625 12.1825 18.4922C11.8544 19.6953 11.8544 20.1328 12.1825 21.3359C11.3622 22.2109 11.1435 22.5938 10.8154 23.7969C9.99504 24.0156 9.50285 24.1797 8.73723 24.8359C8.19035 24.6172 7.64348 24.5078 7.04191 24.5078C6.38566 24.5078 5.83879 24.6172 5.29191 24.8906C4.52629 24.2344 4.0341 24.0156 3.21379 23.7969C2.88566 22.5938 2.7216 22.2656 1.8466 21.3359ZM7.42473 28.6094C7.15129 28.5 6.87785 28.5 6.60441 28.6094L4.41691 29.7578V26.4219C4.41691 26.4766 4.41691 26.4766 4.41691 26.4766C4.63566 26.6953 4.9091 26.75 5.12785 26.75C5.3466 26.75 5.51066 26.6953 5.72941 26.6406C6.11223 26.3672 6.54973 26.2578 7.04191 26.2578C7.47941 26.2578 7.91691 26.3672 8.29973 26.5859C8.51848 26.75 8.68254 26.75 8.90129 26.75C9.17473 26.75 9.39348 26.6953 9.61223 26.4766C9.61223 26.4766 9.61223 26.4766 9.66691 26.4219V29.7578L7.42473 28.6094ZM26.2919 29.4297C26.2919 29.8672 25.8544 30.3047 25.4169 30.3047H11.4169V25.4375C11.4716 25.4375 11.5263 25.4375 11.6357 25.3828C12.0185 25.2734 12.2919 25 12.4013 24.6172C12.7294 23.25 12.7294 23.3047 13.7138 22.3203C13.9872 22.0469 14.0966 21.6094 13.9872 21.2266C13.6044 19.9141 13.6044 19.9141 13.9872 18.6016C14.0966 18.2188 13.9872 17.7812 13.7138 17.5078C12.7294 16.5234 12.7294 16.5234 12.4013 15.2109C12.2919 14.8281 12.0185 14.5547 11.6357 14.4453C10.3232 14.0625 10.3232 14.1172 9.33879 13.0781C9.17473 12.9141 8.95598 12.8594 8.79191 12.8047V6.67969C8.79191 6.1875 9.17473 5.75 9.66691 5.75H19.2919V11.4922C19.2919 12.2031 19.8388 12.75 20.6044 12.75H26.2919V29.4297Z" fill="#5C8EE6"></path>
  </symbol>
  <symbol fill="none" xmlns="http://www.w3.org/2000/svg" viewBox="0 0 36 36" id="control">
    <path d="M17.1172 23.25C15.5312 23.25 14.8203 24.125 12.25 24.125C9.625 24.125 8.91406 23.25 7.32812 23.25C3.28125 23.25 0 26.5859 0 30.6328C0 31.3984 0.601562 32 1.36719 32H23.0781C23.8438 32 24.5 31.3984 24.5 30.6328C24.5 26.5859 21.1641 23.25 17.1172 23.25ZM1.75 30.25C1.91406 27.3516 4.375 25.0547 7.32812 25C8.42188 25 9.46094 25.875 12.25 25.875C15.0391 25.875 16.0234 25 17.1172 25C20.0703 25.0547 22.5312 27.3516 22.6953 30.25H1.75ZM4.8125 12.75H5.46875C5.30469 13.3516 5.25 13.8984 5.25 14.5C5.25 18.3828 8.36719 21.5 12.25 21.5C16.0781 21.5 19.25 18.3828 19.25 14.5C19.1953 13.8984 19.1406 13.3516 18.9766 12.75H19.6875C19.9062 12.75 20.125 12.5859 20.125 12.3125V11.4375C20.125 11.2188 19.9062 11 19.6875 11H19.25C19.25 8.21094 17.3359 5.85938 14.7109 5.14844C14.4922 4.49219 13.8359 4.05469 13.125 4H11.375C10.6094 4.05469 9.95312 4.49219 9.73438 5.14844C7.16406 5.85938 5.25 8.21094 5.25 11H4.8125C4.53906 11 4.375 11.2188 4.375 11.4375V12.3125C4.375 12.5859 4.53906 12.75 4.8125 12.75ZM14.875 7.00781C16.4062 7.71875 17.4453 9.25 17.5 11H14.875V7.00781ZM11.375 5.75H13.125V11H11.375V5.75ZM7 11C7 9.25 8.03906 7.71875 9.625 7.00781V11H7ZM7.32812 12.75H17.1719C17.3359 13.2969 17.4453 13.8984 17.5 14.5C17.5 17.3984 15.0938 19.75 12.25 19.75C9.35156 19.75 7 17.3984 7 14.5C7 13.8984 7.10938 13.2969 7.32812 12.75Z" fill="#5C8EE6"></path>
  </symbol>
  <symbol fill="none" xmlns="http://www.w3.org/2000/svg" viewBox="0 0 36 36" id="delivery">
    <path d="M1.75 21.5H20.125C21.0547 21.5 21.875 20.7344 21.875 19.75V7.5C21.875 6.57031 21.0547 5.75 20.125 5.75H1.75C0.765625 5.75 0 6.57031 0 7.5V19.75C0 20.7344 0.765625 21.5 1.75 21.5ZM1.75 7.5H20.125V19.75H1.75V7.5ZM33.9609 15.2656L30.7344 12.0391C30.0781 11.3828 29.2031 11.0547 28.2734 11.0547H24.5C24.0078 11.0547 23.625 11.4375 23.625 11.9297V23.3047H12.4688C11.8125 22.7578 10.9922 22.4297 10.0625 22.4297C8.80469 22.4297 7.71094 22.9766 7 23.9062C6.23438 22.9766 5.14062 22.375 3.9375 22.375C1.75 22.375 0 24.1797 0 26.3125C0 28.5 1.75 30.25 3.9375 30.25C5.14062 30.25 6.23438 29.7031 7 28.7734C7.71094 29.7031 8.80469 30.25 10.0625 30.25C12.1953 30.25 14 28.5 14 26.3125C14 25.875 13.8906 25.4375 13.7266 25H24.5547C24.3906 25.7656 24.4453 26.5312 24.7188 27.3516C25.1562 28.7188 26.3594 29.8125 27.7812 30.1406C30.625 30.8516 33.25 28.6641 33.25 25.875C33.25 25.6016 33.1953 25.3281 33.1406 25H34.125C34.5625 25 35 24.6172 35 24.125V17.7266C35 16.7969 34.6172 15.9219 33.9609 15.2656ZM3.9375 28.5C2.67969 28.5 1.75 27.5703 1.75 26.3125C1.75 25.1094 2.67969 24.125 3.9375 24.125C5.14062 24.125 6.125 25.1094 6.125 26.3125C6.125 27.5703 5.14062 28.5 3.9375 28.5ZM10.0625 28.5C8.80469 28.5 7.875 27.5703 7.875 26.3125C7.875 25.1094 8.80469 24.125 10.0625 24.125C11.2656 24.125 12.25 25.1094 12.25 26.3125C12.25 27.5703 11.2656 28.5 10.0625 28.5ZM25.375 12.75H28.2734C28.7656 12.75 29.2031 12.9688 29.5312 13.2969L32.4844 16.25H25.375V12.75ZM28.875 28.5C27.3984 28.5 26.25 27.3516 26.25 25.875C26.25 24.4531 27.3984 23.25 28.875 23.25C30.2969 23.25 31.5 24.4531 31.5 25.875C31.5 27.3516 30.2969 28.5 28.875 28.5ZM33.25 23.25H32.3203C31.5547 22.2109 30.2969 21.5 28.875 21.5C27.3984 21.5 26.1953 22.2109 25.375 23.25V18H33.25V23.25ZM5.6875 18H6.5625C6.78125 18 7 17.8359 7 17.5625V9.6875C7 9.46875 6.78125 9.25 6.5625 9.25H5.6875C5.41406 9.25 5.25 9.46875 5.25 9.6875V17.5625C5.25 17.8359 5.41406 18 5.6875 18ZM10.9375 18H11.8125C12.0312 18 12.25 17.8359 12.25 17.5625V9.6875C12.25 9.46875 12.0312 9.25 11.8125 9.25H10.9375C10.6641 9.25 10.5 9.46875 10.5 9.6875V17.5625C10.5 17.8359 10.6641 18 10.9375 18ZM16.1875 18H17.0625C17.2812 18 17.5 17.8359 17.5 17.5625V9.6875C17.5 9.46875 17.2812 9.25 17.0625 9.25H16.1875C15.9141 9.25 15.75 9.46875 15.75 9.6875V17.5625C15.75 17.8359 15.9141 18 16.1875 18Z" fill="#5C8EE6"></path>
  </symbol>
  <symbol fill="none" xmlns="http://www.w3.org/2000/svg" viewBox="0 0 140 44" id="logo-black">
    <g clip-path="url(#clip0_191_1668)">
      <path fill-rule="evenodd" clip-rule="evenodd" d="M21.9928 4.89351C24.2857 4.89351 26.4733 5.34481 28.4715 6.16361V12.3539V21.8184C28.4715 25.3669 25.5949 28.2436 22.0465 28.2436C20.5375 28.2436 19.15 27.7235 18.0536 26.8527V32.5405C19.2966 33.0038 20.6421 33.2569 22.0465 33.2569C29.0248 33.2569 33.5146 27.7473 33.5146 21.0594V3.25613C30.1638 1.19127 26.2173 0 21.9928 0C9.84658 0 0 9.84658 0 21.9928C0 28.9293 3.21131 35.1156 8.22825 39.1466V32.1397C6.13243 29.3013 4.89351 25.7918 4.89351 21.9928C4.89351 12.5492 12.5492 4.89351 21.9928 4.89351V4.89351Z" fill="#292D33"></path>
      <path fill-rule="evenodd" clip-rule="evenodd" d="M22.0619 39.1065C19.7688 39.1065 17.5811 38.6552 15.583 37.8364V31.6461V22.1815C15.583 18.6331 18.4597 15.7563 22.0082 15.7563C23.5171 15.7563 24.9044 16.2765 26.0008 17.1473V11.4594C24.7578 10.9962 23.4125 10.7431 22.0082 10.7431C15.0299 10.7431 10.54 16.2527 10.54 22.9406V40.7438C13.8906 42.8087 17.8371 44 22.0619 44C34.2081 44 44.0546 34.1534 44.0546 22.0072C44.0546 15.0707 40.8433 8.88436 35.8264 4.85339V11.8603C37.9222 14.6987 39.1611 18.2082 39.1611 22.0072C39.1611 31.4508 31.5055 39.1065 22.0619 39.1065V39.1065Z" fill="#5C8EE6"></path>
      <path d="M71.3035 22.5536C71.3035 22.6595 71.2612 22.7443 71.1976 22.8079C71.1339 22.8716 71.028 22.9138 70.9221 22.9138H68.676C68.5701 22.9138 68.4853 22.8716 68.4216 22.8079C68.3582 22.7443 68.2946 22.6595 68.2735 22.5536L67.2985 18.5275H62.4249L61.45 22.5536C61.4289 22.6595 61.3655 22.7443 61.3019 22.8079C61.2382 22.8716 61.1534 22.9138 61.0475 22.9138H58.8014C58.6955 22.9138 58.5896 22.8716 58.5259 22.8079C58.4622 22.7443 58.42 22.6595 58.42 22.5536C58.42 22.5324 58.42 22.5324 58.4411 22.5113C58.4411 22.4902 58.4411 22.4688 58.4411 22.4476L61.9165 9.16164C62.0435 8.67402 62.2342 8.27152 62.4672 7.99603C62.7004 7.72055 62.9759 7.48762 63.2514 7.33916C63.5269 7.19102 63.8023 7.10623 64.099 7.06367C64.3744 7.02144 64.6288 7 64.8617 7C65.095 7 65.349 7.02144 65.6456 7.06367C65.9211 7.10623 66.218 7.19102 66.4935 7.33916C66.769 7.48762 67.0231 7.72055 67.2563 7.99603C67.4892 8.27152 67.6799 8.67402 67.8073 9.16164L71.2824 22.4476C71.2824 22.4688 71.2823 22.4902 71.3035 22.5113C71.3035 22.5324 71.3035 22.5324 71.3035 22.5536ZM65.2009 9.81852C65.1795 9.69117 65.1372 9.60638 65.095 9.54304C65.0524 9.50048 64.9676 9.47936 64.8617 9.47936C64.7558 9.47936 64.671 9.50048 64.6288 9.54304C64.5862 9.60638 64.544 9.69117 64.5226 9.81852L62.997 16.1118H66.7265L65.2009 9.81852Z" fill="#292D33"></path>
      <path d="M81.7927 22.3417C81.7927 22.4902 81.7712 22.5961 81.7079 22.6594C81.6442 22.7231 81.5172 22.7653 81.3687 22.7868C81.2206 22.829 80.9873 22.8716 80.7119 22.8927C80.4153 22.9349 80.0975 22.9775 79.7584 22.9986C79.4192 23.0197 79.0804 23.0408 78.7201 23.0623C78.3598 23.0834 78.0418 23.0834 77.7663 23.0834C77.0672 23.0834 76.4314 23.0197 75.8382 22.9138C75.2447 22.8079 74.7363 22.575 74.2912 22.2569C73.8462 21.9392 73.5073 21.5153 73.253 20.9432C72.9986 20.3711 72.8716 19.6505 72.8716 18.7393V7.59352C72.8716 7.48761 72.9138 7.38139 72.9986 7.29692C73.0834 7.21213 73.1893 7.16958 73.2955 7.16958H75.3932C75.4991 7.16958 75.605 7.21213 75.6898 7.29692C75.7746 7.38139 75.8171 7.48761 75.8171 7.59352V18.7393C75.8171 19.4387 75.9441 19.926 76.1771 20.1804C76.4103 20.4344 76.8554 20.5618 77.4697 20.5618H81.3687C81.4746 20.5618 81.5805 20.604 81.6653 20.6888C81.7501 20.7736 81.7927 20.8795 81.7927 20.9854V22.3417ZM86.7511 22.4902C86.7511 22.5961 86.7085 22.702 86.6237 22.7868C86.5393 22.8716 86.433 22.9138 86.3271 22.9138H84.2295C84.1236 22.9138 84.0177 22.8716 83.9329 22.7868C83.8481 22.702 83.8055 22.5961 83.8055 22.4902V7.57241C83.8055 7.46618 83.8481 7.36027 83.9329 7.27548C84.0177 7.21214 84.1236 7.16958 84.2295 7.16958H86.3271C86.433 7.16958 86.5393 7.21214 86.6237 7.27548C86.7085 7.36027 86.7511 7.46618 86.7511 7.57241V22.4902ZM101.626 22.5535C101.626 22.6594 101.584 22.7442 101.52 22.8079C101.457 22.8716 101.351 22.9138 101.245 22.9138H98.9988C98.8929 22.9138 98.8081 22.8716 98.7444 22.8079C98.6811 22.7442 98.6174 22.6594 98.5963 22.5535L97.6214 18.5275H92.7478L91.7732 22.5535C91.7517 22.6594 91.6884 22.7442 91.6247 22.8079C91.561 22.8716 91.4766 22.9138 91.3703 22.9138H89.1242C89.0183 22.9138 88.9124 22.8716 88.8487 22.8079C88.7854 22.7442 88.7428 22.6594 88.7428 22.5535C88.7428 22.5324 88.7428 22.5324 88.7639 22.5113C88.7639 22.4902 88.7639 22.4687 88.7639 22.4476L92.2393 9.16164C92.3664 8.67402 92.5571 8.27152 92.7903 7.99603C93.0232 7.72055 93.2987 7.48762 93.5742 7.33916C93.8497 7.19102 94.1252 7.10623 94.4218 7.06367C94.6973 7.02144 94.9516 7 95.1846 7C95.4178 7 95.6719 7.02144 95.9688 7.06367C96.2443 7.10623 96.5409 7.19102 96.8164 7.33916C97.0918 7.48762 97.3459 7.72055 97.5791 7.99603C97.8121 8.27152 98.0031 8.67402 98.1301 9.16164L101.605 22.4476C101.605 22.4687 101.605 22.4902 101.626 22.5113C101.626 22.5324 101.626 22.5324 101.626 22.5535ZM95.5237 9.81851C95.5026 9.69117 95.46 9.60638 95.4178 9.54303C95.3753 9.50047 95.2905 9.47936 95.1846 9.47936C95.0787 9.47936 94.9939 9.50047 94.9516 9.54303C94.9091 9.60638 94.8668 9.69117 94.8457 9.81851L93.3198 16.1118H97.0493L95.5237 9.81851ZM115.527 22.0662C115.527 22.2995 115.442 22.5113 115.294 22.6594C115.124 22.829 114.913 22.9138 114.679 22.9138H112.539C112.285 22.9138 112.052 22.8716 111.84 22.8079C111.607 22.7442 111.416 22.5324 111.247 22.151L106.542 11.8314C106.479 11.7255 106.415 11.6618 106.352 11.6618C106.288 11.6618 106.246 11.7255 106.246 11.8314V22.4902C106.246 22.5961 106.203 22.702 106.14 22.7868C106.055 22.8716 105.949 22.9138 105.843 22.9138H104.042C103.936 22.9138 103.83 22.8716 103.745 22.7868C103.661 22.702 103.618 22.5961 103.618 22.4902V8.01714C103.618 7.78422 103.703 7.57241 103.872 7.40283C104.021 7.25437 104.233 7.16958 104.466 7.16958H106.754C106.988 7.16958 107.157 7.21213 107.305 7.29692C107.433 7.38139 107.56 7.57241 107.687 7.84757L112.624 18.7393C112.666 18.8452 112.73 18.9089 112.794 18.9089C112.857 18.9089 112.899 18.8452 112.899 18.7182V7.57241C112.899 7.29692 113.027 7.16958 113.302 7.16958H115.124C115.4 7.16958 115.527 7.29692 115.527 7.57241V22.0662ZM128.072 22.2569C128.072 22.4054 128.029 22.5113 127.945 22.575C127.86 22.6383 127.754 22.702 127.605 22.7442C127.521 22.7653 127.372 22.8079 127.181 22.829C126.97 22.8716 126.715 22.9138 126.419 22.9564C126.122 22.9775 125.783 23.0197 125.423 23.0408C125.063 23.0623 124.66 23.0834 124.257 23.0834C123.622 23.0834 122.944 22.9986 122.244 22.8079C121.545 22.6172 120.888 22.278 120.316 21.7907C119.723 21.3034 119.256 20.6466 118.854 19.8201C118.472 18.9937 118.282 17.9128 118.282 16.5991V13.4843C118.282 12.1494 118.472 11.0686 118.854 10.221C119.256 9.39457 119.723 8.7377 120.316 8.2504C120.888 7.76311 121.545 7.44506 122.244 7.25436C122.944 7.08478 123.622 7 124.257 7C124.66 7 125.063 7.02144 125.423 7.04255C125.783 7.06367 126.122 7.10623 126.419 7.12734C126.715 7.16958 126.97 7.21213 127.181 7.25436C127.372 7.29692 127.521 7.31804 127.605 7.33916C127.754 7.38139 127.86 7.42394 127.945 7.48761C128.029 7.55096 128.072 7.67831 128.072 7.82645V9.24643C128.072 9.37345 128.05 9.47936 127.987 9.56415C127.923 9.64894 127.796 9.69117 127.648 9.69117H127.605C127.415 9.67005 127.203 9.64894 126.948 9.62782C126.673 9.60638 126.398 9.60638 126.101 9.58526C125.804 9.56415 125.507 9.56415 125.19 9.54303C124.872 9.52191 124.575 9.52192 124.3 9.52192C123.855 9.52192 123.431 9.58527 123.071 9.71262C122.689 9.86075 122.371 10.0726 122.096 10.3695C121.821 10.6872 121.609 11.0897 121.46 11.5984C121.312 12.1069 121.227 12.7426 121.227 13.4843V16.5991C121.227 17.3408 121.312 17.9554 121.46 18.4638C121.609 18.9725 121.821 19.3751 122.096 19.6931C122.371 20.0108 122.689 20.2226 123.071 20.35C123.431 20.4981 123.855 20.5618 124.3 20.5618C124.575 20.5618 124.872 20.5618 125.19 20.5407C125.507 20.5192 125.804 20.5192 126.101 20.4981C126.398 20.477 126.673 20.4559 126.948 20.4344C127.203 20.4133 127.415 20.4133 127.605 20.3922H127.648C127.796 20.3922 127.923 20.4344 127.987 20.5192C128.05 20.604 128.072 20.7099 128.072 20.8373V22.2569ZM140.002 22.3417C140.002 22.4902 139.98 22.5961 139.917 22.6594C139.853 22.7231 139.726 22.7653 139.578 22.7868C139.408 22.8079 139.218 22.8501 139.027 22.8716C138.815 22.9138 138.56 22.9563 138.264 22.9775C137.946 22.9986 137.586 23.0408 137.162 23.0623C136.717 23.0834 136.187 23.0834 135.552 23.0834C134.852 23.0834 134.217 23.0197 133.623 22.9138C133.03 22.8079 132.5 22.575 132.076 22.2569C131.631 21.9392 131.271 21.5153 131.017 20.9432C130.763 20.3711 130.635 19.6505 130.635 18.7393V11.3441C130.635 10.4328 130.763 9.71261 131.017 9.1402C131.271 8.56812 131.631 8.12305 132.076 7.80533C132.5 7.48761 133.03 7.27548 133.623 7.16958C134.217 7.06367 134.852 7 135.552 7C136.187 7 136.717 7 137.162 7.02144C137.586 7.04255 137.946 7.08478 138.264 7.10622C138.56 7.12734 138.815 7.16958 139.027 7.19102C139.218 7.23325 139.408 7.27548 139.578 7.29692C139.726 7.31804 139.853 7.36027 139.917 7.42394C139.98 7.48761 140.002 7.59352 140.002 7.74166V9.09797C140.002 9.20387 139.959 9.30978 139.874 9.39457C139.79 9.47936 139.684 9.52192 139.578 9.52192H135.255C134.64 9.52192 134.196 9.64894 133.962 9.90331C133.708 10.1574 133.581 10.6447 133.581 11.3441V13.6327H139.324C139.429 13.6327 139.535 13.675 139.62 13.7598C139.705 13.8446 139.747 13.9505 139.747 14.0564V15.5819C139.747 15.6882 139.705 15.7941 139.62 15.8789C139.535 15.9636 139.429 16.0059 139.324 16.0059H133.581V18.7393C133.581 19.4387 133.708 19.926 133.962 20.1804C134.196 20.4344 134.64 20.5618 135.255 20.5618H139.578C139.684 20.5618 139.79 20.604 139.874 20.6888C139.959 20.7736 140.002 20.8795 140.002 20.9854V22.3417Z" fill="#292D33"></path>
      <path d="M65.8759 29.9868C65.8759 30.5816 65.7677 31.0816 65.565 31.4867C65.3489 31.8921 65.0653 32.2167 64.7002 32.4597C64.349 32.7167 63.9303 32.8921 63.4706 32.9866C62.9979 33.0948 62.4979 33.149 61.9707 33.149C61.7953 33.149 61.5925 33.1354 61.3492 33.1218C61.1195 33.1084 60.9168 33.1084 60.768 33.0948V36.6215C60.768 36.6891 60.7411 36.7567 60.7005 36.8109C60.6465 36.8648 60.579 36.8918 60.5114 36.8918H59.1603C59.0927 36.8918 59.0251 36.8648 58.9709 36.8109C58.917 36.7567 58.89 36.6891 58.89 36.6215V27.3249C58.89 27.1897 58.9306 27.0952 59.0115 27.0276C59.0791 26.9737 59.1873 26.9331 59.3224 26.9198C59.6736 26.8655 60.079 26.8249 60.5384 26.7846C60.998 26.7573 61.4844 26.744 61.9843 26.744C62.4979 26.744 62.9979 26.7979 63.4706 26.8925C63.9303 26.987 64.349 27.1628 64.7002 27.4061C65.0653 27.6494 65.3489 27.9736 65.565 28.3654C65.7677 28.7709 65.8759 29.2708 65.8759 29.8653V29.9868ZM63.9978 29.8517C63.9978 29.2845 63.8354 28.879 63.4979 28.6494C63.16 28.406 62.6464 28.2845 61.9707 28.2845C61.9031 28.2845 61.8086 28.2845 61.7004 28.2845C61.5789 28.2978 61.4707 28.2978 61.3492 28.2978C61.2277 28.3115 61.1195 28.3115 61.025 28.3115C60.9168 28.3248 60.8356 28.3248 60.768 28.3385V31.5679C60.8223 31.5679 60.9032 31.5679 61.025 31.5679C61.1332 31.5816 61.2547 31.5816 61.3762 31.5816C61.498 31.5949 61.6059 31.5949 61.7277 31.5949C61.8355 31.6085 61.9168 31.6085 61.9707 31.6085C62.7003 31.6085 63.2276 31.4734 63.5382 31.2031C63.8491 30.9328 63.9978 30.5274 63.9978 29.9735V29.8517ZM74.6456 36.7297C74.6456 36.8379 74.5917 36.8918 74.4835 36.8918H72.8348C72.7672 36.8918 72.7133 36.8648 72.6727 36.8109C72.6324 36.7567 72.6051 36.6891 72.5648 36.6215L70.6189 33.0272H70.4298C70.2541 33.0272 70.0377 33.0139 69.808 33.0003C69.5784 32.9866 69.3756 32.9866 69.2272 32.9733V36.6215C69.2272 36.6891 69.1999 36.7567 69.1596 36.8109C69.1054 36.8648 69.0378 36.8918 68.9702 36.8918H67.6191C67.5515 36.8918 67.484 36.8648 67.43 36.8109C67.3758 36.7567 67.3488 36.6891 67.3488 36.6215V27.3249C67.3488 27.1897 67.3894 27.0952 67.4703 27.0276C67.5379 26.9737 67.6461 26.9331 67.7812 26.9198C68.1324 26.8655 68.5378 26.8249 68.9975 26.7846C69.4569 26.7573 69.9432 26.744 70.4431 26.744C70.9568 26.744 71.4567 26.7979 71.9297 26.8925C72.3891 27.0007 72.8078 27.1764 73.1593 27.4061C73.5242 27.6358 73.8078 27.9467 74.0241 28.3385C74.2268 28.7302 74.3347 29.2169 74.3347 29.7977V29.9192C74.3347 30.6356 74.1726 31.2301 73.8347 31.6761C73.5105 32.1218 73.0645 32.4597 72.4973 32.676L74.6186 36.6215C74.6319 36.6488 74.6456 36.6891 74.6456 36.7297ZM72.4567 29.7977C72.4567 29.2845 72.2945 28.9196 71.9567 28.6896C71.6188 28.46 71.1052 28.3521 70.4298 28.3521C70.3623 28.3521 70.2674 28.3521 70.1595 28.3521C70.0377 28.3654 69.9299 28.3654 69.808 28.3654C69.6865 28.3791 69.5784 28.3791 69.4838 28.3791C69.3756 28.3924 69.2948 28.3924 69.2272 28.406V31.4464C69.2811 31.4464 69.3623 31.4464 69.4838 31.4464C69.592 31.4597 69.7135 31.4598 69.835 31.4598C69.9568 31.4734 70.0647 31.4734 70.1865 31.4734C70.2947 31.4867 70.3756 31.4867 70.4298 31.4867C71.1322 31.4867 71.6458 31.3789 71.97 31.1492C72.2945 30.9195 72.4567 30.5141 72.4567 29.9192V29.7977Z" fill="#5C8EE6"></path>
      <path d="M83.3208 32.7842C83.3208 33.5272 83.2259 34.176 83.0368 34.7029C82.8341 35.2298 82.5775 35.6622 82.226 36.0001C81.8884 36.3379 81.483 36.5946 81.01 36.7567C80.5507 36.9188 80.037 37 79.4831 37C78.9156 37 78.402 36.9188 77.9426 36.7567C77.4696 36.5946 77.0642 36.3379 76.7267 36.0001C76.3888 35.6622 76.1185 35.2298 75.9291 34.7029C75.7264 34.176 75.6319 33.5272 75.6319 32.7842V30.9598C75.6319 30.2168 75.7264 29.5817 75.9291 29.0411C76.1185 28.5142 76.3888 28.0682 76.7267 27.7303C77.0642 27.3925 77.4696 27.1495 77.9426 26.987C78.402 26.8249 78.9156 26.744 79.4831 26.744C80.037 26.744 80.5507 26.8249 81.01 26.987C81.483 27.1495 81.8884 27.3925 82.226 27.7303C82.5775 28.0682 82.8341 28.5142 83.0368 29.0411C83.2259 29.5817 83.3208 30.2168 83.3208 30.9598V32.7842ZM81.4424 30.9598C81.4424 30.0544 81.2803 29.406 80.9561 28.9869C80.6452 28.5818 80.1452 28.3791 79.4831 28.3791C78.8074 28.3791 78.3075 28.5818 77.9966 28.9869C77.6724 29.406 77.5102 30.0544 77.5102 30.9598V32.7842C77.5102 33.6893 77.6724 34.3381 77.9966 34.7435C78.3075 35.1623 78.8074 35.365 79.4831 35.365C80.1452 35.365 80.6452 35.1623 80.9561 34.7435C81.2803 34.3381 81.4424 33.6893 81.4424 32.7842V30.9598ZM92.3604 32.8651C92.3604 34.2029 91.9956 35.2298 91.2523 35.9325C90.5227 36.6488 89.4688 37 88.1177 37C87.8607 37 87.6177 37 87.3475 36.9864C87.0772 36.9731 86.8205 36.9594 86.5772 36.9461C86.3202 36.9324 86.1042 36.9055 85.9015 36.8918C85.6988 36.8785 85.5367 36.8512 85.4421 36.8379C85.3206 36.8243 85.2394 36.784 85.1855 36.7164C85.1179 36.6488 85.0906 36.554 85.0906 36.4188V27.3249C85.0906 27.1897 85.1179 27.0952 85.1855 27.0276C85.2394 26.9601 85.3206 26.9198 85.4421 26.9061C85.5367 26.8925 85.6988 26.8655 85.9015 26.8522C86.1042 26.8386 86.3202 26.8116 86.5772 26.798C86.8205 26.7846 87.0772 26.771 87.3475 26.7573C87.6177 26.744 87.8607 26.744 88.1177 26.744C89.4688 26.744 90.5227 27.0952 91.2523 27.7979C91.9956 28.5142 92.3604 29.5411 92.3604 30.8789V32.8651ZM90.4824 30.8789C90.4824 30.3789 90.4281 29.9599 90.3066 29.6356C90.1851 29.2978 90.0094 29.0411 89.8067 28.8384C89.5903 28.6494 89.3337 28.5142 89.0501 28.433C88.7528 28.3654 88.4419 28.3248 88.1041 28.3248C87.8474 28.3248 87.6311 28.3248 87.4553 28.3385C87.2799 28.3521 87.1178 28.3521 86.969 28.3654V35.3919C87.1178 35.4056 87.2799 35.4056 87.4553 35.4189C87.6311 35.4325 87.8474 35.4325 88.1041 35.4325C88.4419 35.4325 88.7528 35.3919 89.0501 35.3111C89.3337 35.2435 89.5903 35.1083 89.8067 34.9056C90.0094 34.7165 90.1851 34.4596 90.3066 34.1217C90.4281 33.7975 90.4824 33.3787 90.4824 32.8788V30.8789ZM101.468 33.176C101.468 33.892 101.373 34.5002 101.198 34.9865C101.009 35.4732 100.752 35.8649 100.427 36.1622C100.09 36.4594 99.6978 36.6758 99.2518 36.7973C98.7924 36.9325 98.2925 37 97.7519 37C97.2116 37 96.7117 36.9325 96.2656 36.7973C95.8063 36.6758 95.4145 36.4594 95.0899 36.1622C94.7521 35.8649 94.4954 35.4732 94.3197 34.9865C94.1306 34.5002 94.0361 33.892 94.0361 33.176V27.1088C94.0361 27.0413 94.063 26.9737 94.1173 26.9198C94.1712 26.8792 94.2388 26.8522 94.3064 26.8522H95.6442C95.7117 26.8522 95.7793 26.8792 95.8332 26.9198C95.8872 26.9737 95.9144 27.0413 95.9144 27.1088V33.1894C95.9144 33.5678 95.9414 33.9057 95.9953 34.1893C96.0496 34.4732 96.1441 34.7165 96.2926 34.9056C96.4277 35.0947 96.6168 35.2298 96.8468 35.3244C97.0765 35.4189 97.3871 35.4595 97.7519 35.4595C98.117 35.4595 98.4143 35.4189 98.6573 35.3244C98.887 35.2298 99.0764 35.0947 99.2248 34.9056C99.36 34.7165 99.4545 34.4732 99.5087 34.1893C99.5627 33.9057 99.5896 33.5678 99.5896 33.1894V27.1088C99.5896 27.0413 99.6169 26.9737 99.6709 26.9198C99.7248 26.8792 99.7924 26.8522 99.8599 26.8522H101.198C101.265 26.8522 101.333 26.8792 101.387 26.9198C101.441 26.9737 101.468 27.0413 101.468 27.1088V33.176ZM109.4 36.4731C109.4 36.5676 109.373 36.6352 109.319 36.6758C109.265 36.7164 109.197 36.7567 109.103 36.784C109.048 36.7973 108.954 36.8243 108.832 36.8379C108.697 36.8649 108.535 36.8918 108.346 36.9188C108.157 36.9325 107.941 36.9594 107.711 36.9731C107.481 36.9864 107.224 37 106.968 37C106.562 37 106.13 36.9461 105.684 36.8243C105.238 36.7028 104.819 36.4864 104.454 36.1758C104.076 35.8649 103.779 35.4462 103.522 34.9189C103.279 34.392 103.157 33.703 103.157 32.8651V30.8789C103.157 30.0274 103.279 29.3384 103.522 28.7978C103.779 28.2709 104.076 27.8521 104.454 27.5412C104.819 27.2303 105.238 27.0276 105.684 26.9061C106.13 26.798 106.562 26.744 106.968 26.744C107.224 26.744 107.481 26.7573 107.711 26.771C107.941 26.7846 108.157 26.8116 108.346 26.8249C108.535 26.8522 108.697 26.8792 108.832 26.9061C108.954 26.9331 109.048 26.9467 109.103 26.9601C109.197 26.987 109.265 27.0143 109.319 27.0546C109.373 27.0952 109.4 27.1764 109.4 27.271V28.1764C109.4 28.2572 109.386 28.3248 109.346 28.3791C109.305 28.433 109.224 28.46 109.13 28.46H109.103C108.981 28.4466 108.846 28.433 108.684 28.4194C108.508 28.406 108.332 28.406 108.143 28.3924C107.954 28.3791 107.765 28.3791 107.562 28.3654C107.359 28.3521 107.17 28.3521 106.995 28.3521C106.711 28.3521 106.441 28.3924 106.211 28.4736C105.968 28.5681 105.765 28.7033 105.589 28.8924C105.413 29.0951 105.278 29.352 105.184 29.6763C105.089 30.0005 105.035 30.4059 105.035 30.8789V32.8651C105.035 33.3381 105.089 33.7299 105.184 34.0541C105.278 34.3787 105.413 34.6353 105.589 34.838C105.765 35.0408 105.968 35.1759 106.211 35.2568C106.441 35.3513 106.711 35.3919 106.995 35.3919C107.17 35.3919 107.359 35.3919 107.562 35.3786C107.765 35.365 107.954 35.365 108.143 35.3513C108.332 35.338 108.508 35.3244 108.684 35.3111C108.846 35.2974 108.981 35.2974 109.103 35.2838H109.13C109.224 35.2838 109.305 35.311 109.346 35.365C109.386 35.4189 109.4 35.4865 109.4 35.5677V36.4731ZM117.508 28.1764C117.508 28.2439 117.48 28.3115 117.426 28.3521C117.372 28.3924 117.305 28.4194 117.237 28.4194H114.873V36.6216C114.873 36.6891 114.845 36.7567 114.791 36.811C114.737 36.8649 114.67 36.8918 114.602 36.8918H113.264C113.197 36.8918 113.129 36.8649 113.075 36.811C113.021 36.7567 112.994 36.6891 112.994 36.6216V28.4194H110.63C110.562 28.4194 110.494 28.3924 110.44 28.3521C110.386 28.3115 110.359 28.2439 110.359 28.1764V27.1088C110.359 27.0413 110.386 26.9737 110.44 26.9198C110.494 26.8792 110.562 26.8522 110.63 26.8522H117.237C117.305 26.8522 117.372 26.8792 117.426 26.9198C117.48 26.9737 117.508 27.0413 117.508 27.1088V28.1764ZM120.737 36.6216C120.737 36.6891 120.71 36.7567 120.656 36.811C120.602 36.8649 120.534 36.8918 120.467 36.8918H119.129C119.061 36.8918 118.994 36.8649 118.94 36.811C118.886 36.7567 118.859 36.6891 118.859 36.6216V27.1088C118.859 27.0413 118.886 26.9737 118.94 26.9198C118.994 26.8792 119.061 26.8522 119.129 26.8522H120.467C120.534 26.8522 120.602 26.8792 120.656 26.9198C120.71 26.9737 120.737 27.0413 120.737 27.1088V36.6216ZM130.182 32.7842C130.182 33.5272 130.088 34.176 129.898 34.7029C129.696 35.2298 129.439 35.6622 129.088 36.0001C128.75 36.3379 128.344 36.5946 127.871 36.7567C127.412 36.9188 126.899 37 126.344 37C125.777 37 125.264 36.9188 124.804 36.7567C124.331 36.5946 123.926 36.3379 123.588 36.0001C123.25 35.6622 122.98 35.2298 122.791 34.7029C122.588 34.176 122.494 33.5272 122.494 32.7842V30.9598C122.494 30.2168 122.588 29.5817 122.791 29.0411C122.98 28.5142 123.25 28.0682 123.588 27.7303C123.926 27.3925 124.331 27.1495 124.804 26.987C125.264 26.8249 125.777 26.744 126.344 26.744C126.899 26.744 127.412 26.8249 127.871 26.987C128.344 27.1495 128.75 27.3925 129.088 27.7303C129.439 28.0682 129.696 28.5142 129.898 29.0411C130.088 29.5817 130.182 30.2168 130.182 30.9598V32.7842ZM128.304 30.9598C128.304 30.0544 128.142 29.406 127.817 28.9869C127.507 28.5818 127.007 28.3791 126.344 28.3791C125.669 28.3791 125.169 28.5818 124.858 28.9869C124.534 29.406 124.372 30.0544 124.372 30.9598V32.7842C124.372 33.6893 124.534 34.3381 124.858 34.7435C125.169 35.1623 125.669 35.365 126.344 35.365C127.007 35.365 127.507 35.1623 127.817 34.7435C128.142 34.3381 128.304 33.6893 128.304 32.7842V30.9598ZM139.546 36.3516C139.546 36.5001 139.492 36.6352 139.398 36.7297C139.29 36.8379 139.155 36.8918 139.006 36.8918H137.641C137.479 36.8918 137.33 36.8649 137.195 36.8243C137.046 36.784 136.925 36.6488 136.817 36.4055L133.817 29.8247C133.776 29.7571 133.736 29.7169 133.696 29.7169C133.655 29.7169 133.628 29.7571 133.628 29.8247V36.6216C133.628 36.6891 133.601 36.7567 133.56 36.811C133.506 36.8649 133.439 36.8918 133.371 36.8918H132.223C132.155 36.8918 132.087 36.8649 132.033 36.811C131.979 36.7567 131.952 36.6891 131.952 36.6216V27.3925C131.952 27.244 132.006 27.1088 132.114 27.0007C132.209 26.9061 132.344 26.8522 132.493 26.8522H133.952C134.101 26.8522 134.209 26.8792 134.303 26.9331C134.385 26.987 134.465 27.1088 134.547 27.2846L137.695 34.2299C137.722 34.2975 137.763 34.3381 137.803 34.3381C137.844 34.3381 137.871 34.2975 137.871 34.2166V27.1088C137.871 26.9331 137.952 26.8522 138.128 26.8522H139.29C139.465 26.8522 139.546 26.9331 139.546 27.1088V36.3516Z" fill="#5C8EE6"></path>
    </g>
    <defs>
      <clipPath id="clip0_191_1668">
        <rect width="140" height="44" fill="white"></rect>
      </clipPath>
    </defs>
  </symbol>
  <symbol fill="none" xmlns="http://www.w3.org/2000/svg" viewBox="0 0 140 44" id="logo-light">
    <g clip-path="url(#clip0_191_1609)">
      <path fill-rule="evenodd" clip-rule="evenodd" d="M21.9928 4.89351C24.2857 4.89351 26.4733 5.34481 28.4715 6.16361V12.3539V21.8184C28.4715 25.3669 25.5949 28.2436 22.0465 28.2436C20.5375 28.2436 19.15 27.7235 18.0536 26.8527V32.5405C19.2966 33.0038 20.6421 33.2569 22.0465 33.2569C29.0248 33.2569 33.5146 27.7473 33.5146 21.0594V3.25613C30.1638 1.19127 26.2173 0 21.9928 0C9.84658 0 0 9.84658 0 21.9928C0 28.9293 3.21131 35.1156 8.22825 39.1466V32.1397C6.13243 29.3013 4.89351 25.7918 4.89351 21.9928C4.89351 12.5492 12.5492 4.89351 21.9928 4.89351Z" fill="white"></path>
      <path fill-rule="evenodd" clip-rule="evenodd" d="M22.0619 39.1065C19.7688 39.1065 17.5811 38.6552 15.583 37.8364V31.6461V22.1815C15.583 18.6331 18.4597 15.7563 22.0082 15.7563C23.5171 15.7563 24.9044 16.2765 26.0008 17.1473V11.4594C24.7578 10.9962 23.4125 10.7431 22.0082 10.7431C15.0299 10.7431 10.54 16.2527 10.54 22.9406V40.7438C13.8906 42.8087 17.8371 44 22.0619 44C34.2081 44 44.0546 34.1534 44.0546 22.0072C44.0546 15.0707 40.8433 8.88436 35.8264 4.85339V11.8603C37.9222 14.6987 39.1611 18.2082 39.1611 22.0072C39.1611 31.4508 31.5055 39.1065 22.0619 39.1065Z" fill="#5C8EE6"></path>
      <path d="M71.3035 22.5536C71.3035 22.6595 71.2612 22.7443 71.1976 22.8079C71.1339 22.8716 71.028 22.9138 70.9221 22.9138H68.676C68.5701 22.9138 68.4853 22.8716 68.4216 22.8079C68.3582 22.7443 68.2946 22.6595 68.2735 22.5536L67.2985 18.5275H62.4249L61.45 22.5536C61.4289 22.6595 61.3655 22.7443 61.3019 22.8079C61.2382 22.8716 61.1534 22.9138 61.0475 22.9138H58.8014C58.6955 22.9138 58.5896 22.8716 58.5259 22.8079C58.4622 22.7443 58.42 22.6595 58.42 22.5536C58.42 22.5324 58.42 22.5324 58.4411 22.5113C58.4411 22.4902 58.4411 22.4688 58.4411 22.4476L61.9165 9.16164C62.0435 8.67402 62.2342 8.27152 62.4672 7.99603C62.7004 7.72055 62.9759 7.48762 63.2514 7.33916C63.5269 7.19102 63.8023 7.10623 64.099 7.06367C64.3744 7.02144 64.6288 7 64.8617 7C65.095 7 65.349 7.02144 65.6456 7.06367C65.9211 7.10623 66.218 7.19102 66.4935 7.33916C66.769 7.48762 67.0231 7.72055 67.2563 7.99603C67.4892 8.27152 67.6799 8.67402 67.8073 9.16164L71.2824 22.4476C71.2824 22.4688 71.2823 22.4902 71.3035 22.5113C71.3035 22.5324 71.3035 22.5324 71.3035 22.5536ZM65.2009 9.81852C65.1795 9.69117 65.1372 9.60638 65.095 9.54304C65.0524 9.50048 64.9676 9.47936 64.8617 9.47936C64.7558 9.47936 64.671 9.50048 64.6288 9.54304C64.5862 9.60638 64.544 9.69117 64.5226 9.81852L62.997 16.1118H66.7265L65.2009 9.81852Z" fill="white"></path>
      <path d="M81.7927 22.3417C81.7927 22.4902 81.7712 22.5961 81.7079 22.6594C81.6442 22.7231 81.5172 22.7653 81.3687 22.7868C81.2206 22.829 80.9873 22.8716 80.7119 22.8927C80.4153 22.9349 80.0975 22.9775 79.7584 22.9986C79.4192 23.0197 79.0804 23.0408 78.7201 23.0623C78.3598 23.0834 78.0418 23.0834 77.7663 23.0834C77.0672 23.0834 76.4314 23.0197 75.8382 22.9138C75.2447 22.8079 74.7363 22.575 74.2912 22.2569C73.8462 21.9392 73.5073 21.5153 73.253 20.9432C72.9986 20.3711 72.8716 19.6505 72.8716 18.7393V7.59352C72.8716 7.48761 72.9138 7.38139 72.9986 7.29692C73.0834 7.21213 73.1893 7.16958 73.2955 7.16958H75.3932C75.4991 7.16958 75.605 7.21213 75.6898 7.29692C75.7746 7.38139 75.8171 7.48761 75.8171 7.59352V18.7393C75.8171 19.4387 75.9441 19.926 76.1771 20.1804C76.4103 20.4344 76.8554 20.5618 77.4697 20.5618H81.3687C81.4746 20.5618 81.5805 20.604 81.6653 20.6888C81.7501 20.7736 81.7927 20.8795 81.7927 20.9854V22.3417ZM86.7511 22.4902C86.7511 22.5961 86.7085 22.702 86.6237 22.7868C86.5393 22.8716 86.433 22.9138 86.3271 22.9138H84.2295C84.1236 22.9138 84.0177 22.8716 83.9329 22.7868C83.8481 22.702 83.8055 22.5961 83.8055 22.4902V7.57241C83.8055 7.46618 83.8481 7.36027 83.9329 7.27548C84.0177 7.21214 84.1236 7.16958 84.2295 7.16958H86.3271C86.433 7.16958 86.5393 7.21214 86.6237 7.27548C86.7085 7.36027 86.7511 7.46618 86.7511 7.57241V22.4902ZM101.626 22.5535C101.626 22.6594 101.584 22.7442 101.52 22.8079C101.457 22.8716 101.351 22.9138 101.245 22.9138H98.9988C98.8929 22.9138 98.8081 22.8716 98.7444 22.8079C98.6811 22.7442 98.6174 22.6594 98.5963 22.5535L97.6214 18.5275H92.7478L91.7732 22.5535C91.7517 22.6594 91.6884 22.7442 91.6247 22.8079C91.561 22.8716 91.4766 22.9138 91.3703 22.9138H89.1242C89.0183 22.9138 88.9124 22.8716 88.8487 22.8079C88.7854 22.7442 88.7428 22.6594 88.7428 22.5535C88.7428 22.5324 88.7428 22.5324 88.7639 22.5113C88.7639 22.4902 88.7639 22.4687 88.7639 22.4476L92.2393 9.16164C92.3664 8.67402 92.5571 8.27152 92.7903 7.99603C93.0232 7.72055 93.2987 7.48762 93.5742 7.33916C93.8497 7.19102 94.1252 7.10623 94.4218 7.06367C94.6973 7.02144 94.9516 7 95.1846 7C95.4178 7 95.6719 7.02144 95.9688 7.06367C96.2443 7.10623 96.5409 7.19102 96.8164 7.33916C97.0918 7.48762 97.3459 7.72055 97.5791 7.99603C97.8121 8.27152 98.0031 8.67402 98.1301 9.16164L101.605 22.4476C101.605 22.4687 101.605 22.4902 101.626 22.5113C101.626 22.5324 101.626 22.5324 101.626 22.5535ZM95.5237 9.81851C95.5026 9.69117 95.46 9.60638 95.4178 9.54303C95.3753 9.50047 95.2905 9.47936 95.1846 9.47936C95.0787 9.47936 94.9939 9.50047 94.9516 9.54303C94.9091 9.60638 94.8668 9.69117 94.8457 9.81851L93.3198 16.1118H97.0493L95.5237 9.81851ZM115.527 22.0662C115.527 22.2995 115.442 22.5113 115.294 22.6594C115.124 22.829 114.913 22.9138 114.679 22.9138H112.539C112.285 22.9138 112.052 22.8716 111.84 22.8079C111.607 22.7442 111.416 22.5324 111.247 22.151L106.542 11.8314C106.479 11.7255 106.415 11.6618 106.352 11.6618C106.288 11.6618 106.246 11.7255 106.246 11.8314V22.4902C106.246 22.5961 106.203 22.702 106.14 22.7868C106.055 22.8716 105.949 22.9138 105.843 22.9138H104.042C103.936 22.9138 103.83 22.8716 103.745 22.7868C103.661 22.702 103.618 22.5961 103.618 22.4902V8.01714C103.618 7.78422 103.703 7.57241 103.872 7.40283C104.021 7.25437 104.233 7.16958 104.466 7.16958H106.754C106.988 7.16958 107.157 7.21213 107.305 7.29692C107.433 7.38139 107.56 7.57241 107.687 7.84757L112.624 18.7393C112.666 18.8452 112.73 18.9089 112.794 18.9089C112.857 18.9089 112.899 18.8452 112.899 18.7182V7.57241C112.899 7.29692 113.027 7.16958 113.302 7.16958H115.124C115.4 7.16958 115.527 7.29692 115.527 7.57241V22.0662ZM128.072 22.2569C128.072 22.4054 128.029 22.5113 127.945 22.575C127.86 22.6383 127.754 22.702 127.605 22.7442C127.521 22.7653 127.372 22.8079 127.181 22.829C126.97 22.8716 126.715 22.9138 126.419 22.9564C126.122 22.9775 125.783 23.0197 125.423 23.0408C125.063 23.0623 124.66 23.0834 124.257 23.0834C123.622 23.0834 122.944 22.9986 122.244 22.8079C121.545 22.6172 120.888 22.278 120.316 21.7907C119.723 21.3034 119.256 20.6466 118.854 19.8201C118.472 18.9937 118.282 17.9128 118.282 16.5991V13.4843C118.282 12.1494 118.472 11.0686 118.854 10.221C119.256 9.39457 119.723 8.7377 120.316 8.2504C120.888 7.76311 121.545 7.44506 122.244 7.25436C122.944 7.08478 123.622 7 124.257 7C124.66 7 125.063 7.02144 125.423 7.04255C125.783 7.06367 126.122 7.10623 126.419 7.12734C126.715 7.16958 126.97 7.21213 127.181 7.25436C127.372 7.29692 127.521 7.31804 127.605 7.33916C127.754 7.38139 127.86 7.42394 127.945 7.48761C128.029 7.55096 128.072 7.67831 128.072 7.82645V9.24643C128.072 9.37345 128.05 9.47936 127.987 9.56415C127.923 9.64894 127.796 9.69117 127.648 9.69117H127.605C127.415 9.67005 127.203 9.64894 126.948 9.62782C126.673 9.60638 126.398 9.60638 126.101 9.58526C125.804 9.56415 125.507 9.56415 125.19 9.54303C124.872 9.52191 124.575 9.52192 124.3 9.52192C123.855 9.52192 123.431 9.58527 123.071 9.71262C122.689 9.86075 122.371 10.0726 122.096 10.3695C121.821 10.6872 121.609 11.0897 121.46 11.5984C121.312 12.1069 121.227 12.7426 121.227 13.4843V16.5991C121.227 17.3408 121.312 17.9554 121.46 18.4638C121.609 18.9725 121.821 19.3751 122.096 19.6931C122.371 20.0108 122.689 20.2226 123.071 20.35C123.431 20.4981 123.855 20.5618 124.3 20.5618C124.575 20.5618 124.872 20.5618 125.19 20.5407C125.507 20.5192 125.804 20.5192 126.101 20.4981C126.398 20.477 126.673 20.4559 126.948 20.4344C127.203 20.4133 127.415 20.4133 127.605 20.3922H127.648C127.796 20.3922 127.923 20.4344 127.987 20.5192C128.05 20.604 128.072 20.7099 128.072 20.8373V22.2569ZM140.002 22.3417C140.002 22.4902 139.98 22.5961 139.917 22.6594C139.853 22.7231 139.726 22.7653 139.578 22.7868C139.408 22.8079 139.218 22.8501 139.027 22.8716C138.815 22.9138 138.56 22.9563 138.264 22.9775C137.946 22.9986 137.586 23.0408 137.162 23.0623C136.717 23.0834 136.187 23.0834 135.552 23.0834C134.852 23.0834 134.217 23.0197 133.623 22.9138C133.03 22.8079 132.5 22.575 132.076 22.2569C131.631 21.9392 131.271 21.5153 131.017 20.9432C130.763 20.3711 130.635 19.6505 130.635 18.7393V11.3441C130.635 10.4328 130.763 9.71261 131.017 9.1402C131.271 8.56812 131.631 8.12305 132.076 7.80533C132.5 7.48761 133.03 7.27548 133.623 7.16958C134.217 7.06367 134.852 7 135.552 7C136.187 7 136.717 7 137.162 7.02144C137.586 7.04255 137.946 7.08478 138.264 7.10622C138.56 7.12734 138.815 7.16958 139.027 7.19102C139.218 7.23325 139.408 7.27548 139.578 7.29692C139.726 7.31804 139.853 7.36027 139.917 7.42394C139.98 7.48761 140.002 7.59352 140.002 7.74166V9.09797C140.002 9.20387 139.959 9.30978 139.874 9.39457C139.79 9.47936 139.684 9.52192 139.578 9.52192H135.255C134.64 9.52192 134.196 9.64894 133.962 9.90331C133.708 10.1574 133.581 10.6447 133.581 11.3441V13.6327H139.324C139.429 13.6327 139.535 13.675 139.62 13.7598C139.705 13.8446 139.747 13.9505 139.747 14.0564V15.5819C139.747 15.6882 139.705 15.7941 139.62 15.8789C139.535 15.9636 139.429 16.0059 139.324 16.0059H133.581V18.7393C133.581 19.4387 133.708 19.926 133.962 20.1804C134.196 20.4344 134.64 20.5618 135.255 20.5618H139.578C139.684 20.5618 139.79 20.604 139.874 20.6888C139.959 20.7736 140.002 20.8795 140.002 20.9854V22.3417Z" fill="white"></path>
      <path d="M65.8759 29.9868C65.8759 30.5816 65.7677 31.0816 65.565 31.4867C65.3489 31.8921 65.0653 32.2167 64.7002 32.4597C64.349 32.7167 63.9303 32.8921 63.4706 32.9866C62.9979 33.0948 62.4979 33.149 61.9707 33.149C61.7953 33.149 61.5925 33.1354 61.3492 33.1218C61.1195 33.1084 60.9168 33.1084 60.768 33.0948V36.6215C60.768 36.6891 60.7411 36.7567 60.7005 36.8109C60.6465 36.8648 60.579 36.8918 60.5114 36.8918H59.1603C59.0927 36.8918 59.0251 36.8648 58.9709 36.8109C58.917 36.7567 58.89 36.6891 58.89 36.6215V27.3249C58.89 27.1897 58.9306 27.0952 59.0115 27.0276C59.0791 26.9737 59.1873 26.9331 59.3224 26.9198C59.6736 26.8655 60.079 26.8249 60.5384 26.7846C60.998 26.7573 61.4844 26.744 61.9843 26.744C62.4979 26.744 62.9979 26.7979 63.4706 26.8925C63.9303 26.987 64.349 27.1628 64.7002 27.4061C65.0653 27.6494 65.3489 27.9736 65.565 28.3654C65.7677 28.7709 65.8759 29.2708 65.8759 29.8653V29.9868ZM63.9978 29.8517C63.9978 29.2845 63.8354 28.879 63.4979 28.6494C63.16 28.406 62.6464 28.2845 61.9707 28.2845C61.9031 28.2845 61.8086 28.2845 61.7004 28.2845C61.5789 28.2978 61.4707 28.2978 61.3492 28.2978C61.2277 28.3115 61.1195 28.3115 61.025 28.3115C60.9168 28.3248 60.8356 28.3248 60.768 28.3385V31.5679C60.8223 31.5679 60.9032 31.5679 61.025 31.5679C61.1332 31.5816 61.2547 31.5816 61.3762 31.5816C61.498 31.5949 61.6059 31.5949 61.7277 31.5949C61.8355 31.6085 61.9168 31.6085 61.9707 31.6085C62.7003 31.6085 63.2276 31.4734 63.5382 31.2031C63.8491 30.9328 63.9978 30.5274 63.9978 29.9735V29.8517ZM74.6456 36.7297C74.6456 36.8379 74.5917 36.8918 74.4835 36.8918H72.8348C72.7672 36.8918 72.7133 36.8648 72.6727 36.8109C72.6324 36.7567 72.6051 36.6891 72.5648 36.6215L70.6189 33.0272H70.4298C70.2541 33.0272 70.0377 33.0139 69.808 33.0003C69.5784 32.9866 69.3756 32.9866 69.2272 32.9733V36.6215C69.2272 36.6891 69.1999 36.7567 69.1596 36.8109C69.1054 36.8648 69.0378 36.8918 68.9702 36.8918H67.6191C67.5515 36.8918 67.484 36.8648 67.43 36.8109C67.3758 36.7567 67.3488 36.6891 67.3488 36.6215V27.3249C67.3488 27.1897 67.3894 27.0952 67.4703 27.0276C67.5379 26.9737 67.6461 26.9331 67.7812 26.9198C68.1324 26.8655 68.5378 26.8249 68.9975 26.7846C69.4569 26.7573 69.9432 26.744 70.4431 26.744C70.9568 26.744 71.4567 26.7979 71.9297 26.8925C72.3891 27.0007 72.8078 27.1764 73.1593 27.4061C73.5242 27.6358 73.8078 27.9467 74.0241 28.3385C74.2268 28.7302 74.3347 29.2169 74.3347 29.7977V29.9192C74.3347 30.6356 74.1726 31.2301 73.8347 31.6761C73.5105 32.1218 73.0645 32.4597 72.4973 32.676L74.6186 36.6215C74.6319 36.6488 74.6456 36.6891 74.6456 36.7297ZM72.4567 29.7977C72.4567 29.2845 72.2945 28.9196 71.9567 28.6896C71.6188 28.46 71.1052 28.3521 70.4298 28.3521C70.3623 28.3521 70.2674 28.3521 70.1595 28.3521C70.0377 28.3654 69.9299 28.3654 69.808 28.3654C69.6865 28.3791 69.5784 28.3791 69.4838 28.3791C69.3756 28.3924 69.2948 28.3924 69.2272 28.406V31.4464C69.2811 31.4464 69.3623 31.4464 69.4838 31.4464C69.592 31.4597 69.7135 31.4598 69.835 31.4598C69.9568 31.4734 70.0647 31.4734 70.1865 31.4734C70.2947 31.4867 70.3756 31.4867 70.4298 31.4867C71.1322 31.4867 71.6458 31.3789 71.97 31.1492C72.2945 30.9195 72.4567 30.5141 72.4567 29.9192V29.7977Z" fill="#5C8EE6"></path>
      <path d="M83.3208 32.7842C83.3208 33.5272 83.2259 34.176 83.0368 34.7029C82.8341 35.2298 82.5775 35.6622 82.226 36.0001C81.8884 36.3379 81.483 36.5946 81.01 36.7567C80.5507 36.9188 80.037 37 79.4831 37C78.9156 37 78.402 36.9188 77.9426 36.7567C77.4696 36.5946 77.0642 36.3379 76.7267 36.0001C76.3888 35.6622 76.1185 35.2298 75.9291 34.7029C75.7264 34.176 75.6319 33.5272 75.6319 32.7842V30.9598C75.6319 30.2168 75.7264 29.5817 75.9291 29.0411C76.1185 28.5142 76.3888 28.0682 76.7267 27.7303C77.0642 27.3925 77.4696 27.1495 77.9426 26.987C78.402 26.8249 78.9156 26.744 79.4831 26.744C80.037 26.744 80.5507 26.8249 81.01 26.987C81.483 27.1495 81.8884 27.3925 82.226 27.7303C82.5775 28.0682 82.8341 28.5142 83.0368 29.0411C83.2259 29.5817 83.3208 30.2168 83.3208 30.9598V32.7842ZM81.4424 30.9598C81.4424 30.0544 81.2803 29.406 80.9561 28.9869C80.6452 28.5818 80.1452 28.3791 79.4831 28.3791C78.8074 28.3791 78.3075 28.5818 77.9966 28.9869C77.6724 29.406 77.5102 30.0544 77.5102 30.9598V32.7842C77.5102 33.6893 77.6724 34.3381 77.9966 34.7435C78.3075 35.1623 78.8074 35.365 79.4831 35.365C80.1452 35.365 80.6452 35.1623 80.9561 34.7435C81.2803 34.3381 81.4424 33.6893 81.4424 32.7842V30.9598ZM92.3604 32.8651C92.3604 34.2029 91.9956 35.2298 91.2523 35.9325C90.5227 36.6488 89.4688 37 88.1177 37C87.8607 37 87.6177 37 87.3475 36.9864C87.0772 36.9731 86.8205 36.9594 86.5772 36.9461C86.3202 36.9324 86.1042 36.9055 85.9015 36.8918C85.6988 36.8785 85.5367 36.8512 85.4421 36.8379C85.3206 36.8243 85.2394 36.784 85.1855 36.7164C85.1179 36.6488 85.0906 36.554 85.0906 36.4188V27.3249C85.0906 27.1897 85.1179 27.0952 85.1855 27.0276C85.2394 26.9601 85.3206 26.9198 85.4421 26.9061C85.5367 26.8925 85.6988 26.8655 85.9015 26.8522C86.1042 26.8386 86.3202 26.8116 86.5772 26.798C86.8205 26.7846 87.0772 26.771 87.3475 26.7573C87.6177 26.744 87.8607 26.744 88.1177 26.744C89.4688 26.744 90.5227 27.0952 91.2523 27.7979C91.9956 28.5142 92.3604 29.5411 92.3604 30.8789V32.8651ZM90.4824 30.8789C90.4824 30.3789 90.4281 29.9599 90.3066 29.6356C90.1851 29.2978 90.0094 29.0411 89.8067 28.8384C89.5903 28.6494 89.3337 28.5142 89.0501 28.433C88.7528 28.3654 88.4419 28.3248 88.1041 28.3248C87.8474 28.3248 87.6311 28.3248 87.4553 28.3385C87.2799 28.3521 87.1178 28.3521 86.969 28.3654V35.3919C87.1178 35.4056 87.2799 35.4056 87.4553 35.4189C87.6311 35.4325 87.8474 35.4325 88.1041 35.4325C88.4419 35.4325 88.7528 35.3919 89.0501 35.3111C89.3337 35.2435 89.5903 35.1083 89.8067 34.9056C90.0094 34.7165 90.1851 34.4596 90.3066 34.1217C90.4281 33.7975 90.4824 33.3787 90.4824 32.8788V30.8789ZM101.468 33.176C101.468 33.892 101.373 34.5002 101.198 34.9865C101.009 35.4732 100.752 35.8649 100.427 36.1622C100.09 36.4594 99.6978 36.6758 99.2518 36.7973C98.7924 36.9325 98.2925 37 97.7519 37C97.2116 37 96.7117 36.9325 96.2656 36.7973C95.8063 36.6758 95.4145 36.4594 95.0899 36.1622C94.7521 35.8649 94.4954 35.4732 94.3197 34.9865C94.1306 34.5002 94.0361 33.892 94.0361 33.176V27.1088C94.0361 27.0413 94.063 26.9737 94.1173 26.9198C94.1712 26.8792 94.2388 26.8522 94.3064 26.8522H95.6442C95.7117 26.8522 95.7793 26.8792 95.8332 26.9198C95.8872 26.9737 95.9144 27.0413 95.9144 27.1088V33.1894C95.9144 33.5678 95.9414 33.9057 95.9953 34.1893C96.0496 34.4732 96.1441 34.7165 96.2926 34.9056C96.4277 35.0947 96.6168 35.2298 96.8468 35.3244C97.0765 35.4189 97.3871 35.4595 97.7519 35.4595C98.117 35.4595 98.4143 35.4189 98.6573 35.3244C98.887 35.2298 99.0764 35.0947 99.2248 34.9056C99.36 34.7165 99.4545 34.4732 99.5087 34.1893C99.5627 33.9057 99.5896 33.5678 99.5896 33.1894V27.1088C99.5896 27.0413 99.6169 26.9737 99.6709 26.9198C99.7248 26.8792 99.7924 26.8522 99.8599 26.8522H101.198C101.265 26.8522 101.333 26.8792 101.387 26.9198C101.441 26.9737 101.468 27.0413 101.468 27.1088V33.176ZM109.4 36.4731C109.4 36.5676 109.373 36.6352 109.319 36.6758C109.265 36.7164 109.197 36.7567 109.103 36.784C109.048 36.7973 108.954 36.8243 108.832 36.8379C108.697 36.8649 108.535 36.8918 108.346 36.9188C108.157 36.9325 107.941 36.9594 107.711 36.9731C107.481 36.9864 107.224 37 106.968 37C106.562 37 106.13 36.9461 105.684 36.8243C105.238 36.7028 104.819 36.4864 104.454 36.1758C104.076 35.8649 103.779 35.4462 103.522 34.9189C103.279 34.392 103.157 33.703 103.157 32.8651V30.8789C103.157 30.0274 103.279 29.3384 103.522 28.7978C103.779 28.2709 104.076 27.8521 104.454 27.5412C104.819 27.2303 105.238 27.0276 105.684 26.9061C106.13 26.798 106.562 26.744 106.968 26.744C107.224 26.744 107.481 26.7573 107.711 26.771C107.941 26.7846 108.157 26.8116 108.346 26.8249C108.535 26.8522 108.697 26.8792 108.832 26.9061C108.954 26.9331 109.048 26.9467 109.103 26.9601C109.197 26.987 109.265 27.0143 109.319 27.0546C109.373 27.0952 109.4 27.1764 109.4 27.271V28.1764C109.4 28.2572 109.386 28.3248 109.346 28.3791C109.305 28.433 109.224 28.46 109.13 28.46H109.103C108.981 28.4466 108.846 28.433 108.684 28.4194C108.508 28.406 108.332 28.406 108.143 28.3924C107.954 28.3791 107.765 28.3791 107.562 28.3654C107.359 28.3521 107.17 28.3521 106.995 28.3521C106.711 28.3521 106.441 28.3924 106.211 28.4736C105.968 28.5681 105.765 28.7033 105.589 28.8924C105.413 29.0951 105.278 29.352 105.184 29.6763C105.089 30.0005 105.035 30.4059 105.035 30.8789V32.8651C105.035 33.3381 105.089 33.7299 105.184 34.0541C105.278 34.3787 105.413 34.6353 105.589 34.838C105.765 35.0408 105.968 35.1759 106.211 35.2568C106.441 35.3513 106.711 35.3919 106.995 35.3919C107.17 35.3919 107.359 35.3919 107.562 35.3786C107.765 35.365 107.954 35.365 108.143 35.3513C108.332 35.338 108.508 35.3244 108.684 35.3111C108.846 35.2974 108.981 35.2974 109.103 35.2838H109.13C109.224 35.2838 109.305 35.311 109.346 35.365C109.386 35.4189 109.4 35.4865 109.4 35.5677V36.4731ZM117.508 28.1764C117.508 28.2439 117.48 28.3115 117.426 28.3521C117.372 28.3924 117.305 28.4194 117.237 28.4194H114.873V36.6216C114.873 36.6891 114.845 36.7567 114.791 36.811C114.737 36.8649 114.67 36.8918 114.602 36.8918H113.264C113.197 36.8918 113.129 36.8649 113.075 36.811C113.021 36.7567 112.994 36.6891 112.994 36.6216V28.4194H110.63C110.562 28.4194 110.494 28.3924 110.44 28.3521C110.386 28.3115 110.359 28.2439 110.359 28.1764V27.1088C110.359 27.0413 110.386 26.9737 110.44 26.9198C110.494 26.8792 110.562 26.8522 110.63 26.8522H117.237C117.305 26.8522 117.372 26.8792 117.426 26.9198C117.48 26.9737 117.508 27.0413 117.508 27.1088V28.1764ZM120.737 36.6216C120.737 36.6891 120.71 36.7567 120.656 36.811C120.602 36.8649 120.534 36.8918 120.467 36.8918H119.129C119.061 36.8918 118.994 36.8649 118.94 36.811C118.886 36.7567 118.859 36.6891 118.859 36.6216V27.1088C118.859 27.0413 118.886 26.9737 118.94 26.9198C118.994 26.8792 119.061 26.8522 119.129 26.8522H120.467C120.534 26.8522 120.602 26.8792 120.656 26.9198C120.71 26.9737 120.737 27.0413 120.737 27.1088V36.6216ZM130.182 32.7842C130.182 33.5272 130.088 34.176 129.898 34.7029C129.696 35.2298 129.439 35.6622 129.088 36.0001C128.75 36.3379 128.344 36.5946 127.871 36.7567C127.412 36.9188 126.899 37 126.344 37C125.777 37 125.264 36.9188 124.804 36.7567C124.331 36.5946 123.926 36.3379 123.588 36.0001C123.25 35.6622 122.98 35.2298 122.791 34.7029C122.588 34.176 122.494 33.5272 122.494 32.7842V30.9598C122.494 30.2168 122.588 29.5817 122.791 29.0411C122.98 28.5142 123.25 28.0682 123.588 27.7303C123.926 27.3925 124.331 27.1495 124.804 26.987C125.264 26.8249 125.777 26.744 126.344 26.744C126.899 26.744 127.412 26.8249 127.871 26.987C128.344 27.1495 128.75 27.3925 129.088 27.7303C129.439 28.0682 129.696 28.5142 129.898 29.0411C130.088 29.5817 130.182 30.2168 130.182 30.9598V32.7842ZM128.304 30.9598C128.304 30.0544 128.142 29.406 127.817 28.9869C127.507 28.5818 127.007 28.3791 126.344 28.3791C125.669 28.3791 125.169 28.5818 124.858 28.9869C124.534 29.406 124.372 30.0544 124.372 30.9598V32.7842C124.372 33.6893 124.534 34.3381 124.858 34.7435C125.169 35.1623 125.669 35.365 126.344 35.365C127.007 35.365 127.507 35.1623 127.817 34.7435C128.142 34.3381 128.304 33.6893 128.304 32.7842V30.9598ZM139.546 36.3516C139.546 36.5001 139.492 36.6352 139.398 36.7297C139.29 36.8379 139.155 36.8918 139.006 36.8918H137.641C137.479 36.8918 137.33 36.8649 137.195 36.8243C137.046 36.784 136.925 36.6488 136.817 36.4055L133.817 29.8247C133.776 29.7571 133.736 29.7169 133.696 29.7169C133.655 29.7169 133.628 29.7571 133.628 29.8247V36.6216C133.628 36.6891 133.601 36.7567 133.56 36.811C133.506 36.8649 133.439 36.8918 133.371 36.8918H132.223C132.155 36.8918 132.087 36.8649 132.033 36.811C131.979 36.7567 131.952 36.6891 131.952 36.6216V27.3925C131.952 27.244 132.006 27.1088 132.114 27.0007C132.209 26.9061 132.344 26.8522 132.493 26.8522H133.952C134.101 26.8522 134.209 26.8792 134.303 26.9331C134.385 26.987 134.465 27.1088 134.547 27.2846L137.695 34.2299C137.722 34.2975 137.763 34.3381 137.803 34.3381C137.844 34.3381 137.871 34.2975 137.871 34.2166V27.1088C137.871 26.9331 137.952 26.8522 138.128 26.8522H139.29C139.465 26.8522 139.546 26.9331 139.546 27.1088V36.3516Z" fill="#5C8EE6"></path>
    </g>
    <defs>
      <clipPath id="clip0_191_1609">
        <rect width="140" height="44" fill="white"></rect>
      </clipPath>
    </defs>
  </symbol>
  <symbol xmlns="http://www.w3.org/2000/svg" viewBox="0 0 24 24" id="phone">
    <path d="M19.9688 16.0822L19.2188 19.2384C19.125 19.7072 18.75 20.0197 18.2812 20.0197C10.4062 19.9884 4 13.5822 4 5.70718C4 5.23843 4.28125 4.86343 4.75 4.76968L7.90625 4.01968C8.34375 3.92593 8.8125 4.17593 9 4.58218L10.4688 7.98843C10.625 8.39468 10.5312 8.86343 10.1875 9.11343L8.5 10.4884C9.5625 12.6447 11.3125 14.3947 13.5 15.4572L14.875 13.7697C15.125 13.4572 15.5938 13.3322 16 13.4884L19.4062 14.9572C19.8125 15.1759 20.0625 15.6447 19.9688 16.0822Z"></path>
  </symbol>
  <symbol fill="none" xmlns="http://www.w3.org/2000/svg" viewBox="0 0 36 36" id="speed">
    <path d="M11.625 13.875C10.6406 13.875 9.875 14.6953 9.875 15.625C9.875 16.6094 10.6406 17.375 11.625 17.375C12.5547 17.375 13.375 16.6094 13.375 15.625C13.375 14.6953 12.5547 13.875 11.625 13.875ZM17.75 6C9.05469 6 2 13.0547 2 21.75C2 24.6484 2.76562 27.3828 4.13281 29.6797C4.40625 30.2266 5.00781 30.5547 5.60938 30.5547H29.8359C30.4375 30.5547 31.0391 30.2266 31.3672 29.6797C32.6797 27.3828 33.5 24.6484 33.5 21.75C33.5 13.0547 26.4453 6 17.75 6ZM17.75 27.875C16.4922 27.875 15.5625 26.9453 15.5625 25.6875C15.5625 24.4844 16.4922 23.5 17.75 23.5C18.9531 23.5 19.9375 24.4844 19.9375 25.6875C19.9375 26.9453 18.9531 27.875 17.75 27.875ZM29.3438 27.875H22.0156C22.3438 27.2188 22.5625 26.5078 22.5625 25.6875C22.5625 25.3594 22.5078 25.0312 22.3984 24.7031L27.4297 22.5703C28.0859 22.2422 28.4141 21.4766 28.1406 20.8203C27.8125 20.1641 27.0469 19.8359 26.3906 20.1094L21.1953 22.3516C20.3203 21.4766 19.0625 20.875 17.75 20.875C15.0703 20.875 12.9375 23.0625 12.9375 25.6875C12.9375 26.5078 13.1016 27.2188 13.4844 27.875H6.10156C5.11719 26.0156 4.625 23.9375 4.625 21.75C4.625 14.5312 10.4766 8.625 17.75 8.625C24.9688 8.625 30.875 14.5312 30.875 21.75C30.875 23.9375 30.3281 26.0156 29.3438 27.875ZM9 20C8.01562 20 7.25 20.8203 7.25 21.75C7.25 22.7344 8.01562 23.5 9 23.5C9.92969 23.5 10.75 22.7344 10.75 21.75C10.75 20.8203 9.92969 20 9 20ZM17.75 11.25C16.7656 11.25 16 12.0703 16 13C16 13.9844 16.7656 14.75 17.75 14.75C18.6797 14.75 19.5 13.9844 19.5 13C19.5 12.0703 18.6797 11.25 17.75 11.25ZM23.875 13.875C22.8906 13.875 22.125 14.6953 22.125 15.625C22.125 16.6094 22.8906 17.375 23.875 17.375C24.8047 17.375 25.625 16.6094 25.625 15.625C25.625 14.6953 24.8047 13.875 23.875 13.875Z" fill="#5C8EE6"></path>
  </symbol>
  <symbol fill="none" xmlns="http://www.w3.org/2000/svg" viewBox="0 0 36 36" id="time">
    <path d="M20.125 5.75H20.3438C20.6719 5.75 21 5.47656 21 5.09375V4.65625C21 4.32812 20.6719 4 20.3438 4H0.65625C0.273438 4 0 4.32812 0 4.65625V5.09375C0 5.47656 0.273438 5.75 0.65625 5.75H0.875C0.875 10.7812 3.28125 16.3594 7.92969 18C3.22656 19.6953 0.875 25.2734 0.875 30.25H0.65625C0.273438 30.25 0 30.5781 0 30.9062V31.3438C0 31.7266 0.273438 32 0.65625 32H20.3438C20.6719 32 21 31.7266 21 31.3438V30.9062C21 30.5781 20.6719 30.25 20.3438 30.25H20.125C20.125 25.2734 17.6641 19.6953 13.0156 18C17.7188 16.3594 20.125 10.7812 20.125 5.75ZM2.625 5.75H18.375C18.375 11.8203 14.8203 16.6875 10.5 16.6875C6.125 16.6875 2.625 11.8203 2.625 5.75ZM18.375 30.25H2.625C2.625 24.2344 6.125 19.3125 10.5 19.3125C14.8203 19.3125 18.375 24.2344 18.375 30.25ZM14.7109 12.0391C15.0391 11.6562 14.7109 11 14.1641 11H6.78125C6.23438 11 5.90625 11.6562 6.23438 12.0391C6.34375 12.2031 6.45312 12.3672 6.61719 12.5312C6.72656 12.6953 6.89062 12.75 7.10938 12.75H13.8359C14.0547 12.75 14.2188 12.6953 14.3281 12.5312C14.4922 12.3672 14.6016 12.2031 14.7109 12.0391ZM5.35938 26.75C5.03125 26.75 4.8125 26.9688 4.70312 27.2422C4.70312 27.4062 4.64844 27.5703 4.59375 27.7344C4.53906 28.1172 4.8125 28.5 5.25 28.5H15.6953C16.1328 28.5 16.4062 28.1172 16.3516 27.7344C16.2969 27.5703 16.2422 27.4062 16.2422 27.2422C16.1328 26.9688 15.9141 26.75 15.5859 26.75H5.35938Z" fill="#5C8EE6"></path>
  </symbol>
  <symbol fill="none" xmlns="http://www.w3.org/2000/svg" viewBox="0 0 16 16" id="instagram">
    <path d="M4.44444 0C1.99378 0 0 1.99378 0 4.44444V11.5556C0 14.0062 1.99378 16 4.44444 16H11.5556C14.0062 16 16 14.0062 16 11.5556V4.44444C16 1.99378 14.0062 0 11.5556 0H4.44444ZM4.44444 1.77778H11.5556C13.0258 1.77778 14.2222 2.97422 14.2222 4.44444V11.5556C14.2222 13.0258 13.0258 14.2222 11.5556 14.2222H4.44444C2.97422 14.2222 1.77778 13.0258 1.77778 11.5556V4.44444C1.77778 2.97422 2.97422 1.77778 4.44444 1.77778ZM12.4444 2.66667C12.2087 2.66667 11.9826 2.76032 11.8159 2.92702C11.6492 3.09372 11.5556 3.31981 11.5556 3.55556C11.5556 3.7913 11.6492 4.0174 11.8159 4.18409C11.9826 4.35079 12.2087 4.44444 12.4444 4.44444C12.6802 4.44444 12.9063 4.35079 13.073 4.18409C13.2397 4.0174 13.3333 3.7913 13.3333 3.55556C13.3333 3.31981 13.2397 3.09372 13.073 2.92702C12.9063 2.76032 12.6802 2.66667 12.4444 2.66667ZM8 3.55556C5.54933 3.55556 3.55556 5.54933 3.55556 8C3.55556 10.4507 5.54933 12.4444 8 12.4444C10.4507 12.4444 12.4444 10.4507 12.4444 8C12.4444 5.54933 10.4507 3.55556 8 3.55556ZM8 5.33333C9.47022 5.33333 10.6667 6.52978 10.6667 8C10.6667 9.47022 9.47022 10.6667 8 10.6667C6.52978 10.6667 5.33333 9.47022 5.33333 8C5.33333 6.52978 6.52978 5.33333 8 5.33333Z" fill="#5C8EE6"></path>
  </symbol>
  <symbol fill="none" xmlns="http://www.w3.org/2000/svg" viewBox="0 0 20 12" id="vk">
    <path d="M19.4439 10.7569C18.6455 9.32 16.5889 7.59347 15.7398 6.84216C15.5074 6.63646 15.4826 6.28057 15.694 6.05309C17.3144 4.3119 18.6104 2.31123 19.0565 1.1023C19.2533 0.568255 18.8459 0.00399859 18.2719 0.00399859H16.6044C16.0548 0.00399859 15.7331 0.201266 15.5799 0.515384C14.2332 3.27491 13.078 4.46918 12.2694 5.16717C11.8167 5.55815 11.1107 5.23426 11.1107 4.63934C11.1107 3.49306 11.1107 2.01133 11.1107 0.960569C11.1107 0.450961 10.6939 0.0386537 10.1799 0.0386537L7.13379 0.00399859C6.75036 0.00399859 6.53132 0.438076 6.76147 0.742419L7.26441 1.4644C7.45368 1.71454 7.55587 2.01888 7.55587 2.33122L7.55321 5.58258C7.55321 6.14817 6.86766 6.42453 6.46068 6.02821C5.08381 4.68733 3.88909 1.94913 3.45901 0.639787C3.33461 0.260802 2.97962 0.00488718 2.57709 0.00399859L0.934523 0C0.318283 0 -0.132233 0.58425 0.0352665 1.1725C1.5361 6.44052 4.61552 11.4522 10.1035 11.9956C10.6442 12.0489 11.1107 11.6135 11.1107 11.0745V9.36577C11.1107 8.87571 11.495 8.45452 11.9891 8.44207C12.0064 8.44163 12.0237 8.44163 12.041 8.44163C13.4926 8.44163 15.1182 10.5543 15.6869 11.5424C15.8504 11.8267 16.1561 12 16.4867 12H18.6962C19.3408 12 19.7545 11.3162 19.4439 10.7569Z" fill="#5C8EE6"></path>
  </symbol>
  <symbol fill="none" xmlns="http://www.w3.org/2000/svg" viewBox="0 0 16 12" id="mail">
    <path d="M0.3125 3.96875C1.03125 4.53125 1.9375 5.21875 5.125 7.53125C5.75 8 6.90625 9.03125 8 9.03125C9.125 9.03125 10.25 8 10.9062 7.53125C14.0938 5.21875 15 4.53125 15.7188 3.96875C15.8438 3.875 16 3.96875 16 4.125V10.5C16 11.3438 15.3438 12 14.5 12H1.5C0.6875 12 0 11.3438 0 10.5V4.125C0 3.96875 0.1875 3.875 0.3125 3.96875ZM8 8C7.28125 8.03125 6.25 7.09375 5.71875 6.71875C1.5625 3.71875 1.25 3.4375 0.3125 2.6875C0.125 2.5625 0 2.34375 0 2.09375V1.5C0 0.6875 0.6875 0 1.5 0H14.5C15.3438 0 16 0.6875 16 1.5V2.09375C16 2.34375 15.9062 2.5625 15.7188 2.6875C14.7812 3.4375 14.4688 3.71875 10.3125 6.71875C9.78125 7.09375 8.75 8.03125 8 8Z" fill="#5C8EE6"></path>
  </symbol>
  <symbol fill="none" xmlns="http://www.w3.org/2000/svg" viewBox="0 0 12 17" id="adress">
    <path d="M6.625 15.6875C6.34375 16.125 5.6875 16.125 5.40625 15.6875C0.84375 9.125 0 8.4375 0 6C0 2.6875 2.6875 0 6 0C9.34375 0 12 2.6875 12 6C12 8.4375 11.1875 9.125 6.625 15.6875ZM6 8.5C7.40625 8.5 8.5 7.40625 8.5 6C8.5 4.625 7.40625 3.5 6 3.5C4.625 3.5 3.5 4.625 3.5 6C3.5 7.40625 4.625 8.5 6 8.5Z" fill="#5C8EE6"></path>
  </symbol>
  <symbol viewBox="0 0 31 16" fill="none" xmlns="http://www.w3.org/2000/svg" id="arrow-next">
    <path d="M22.8384 0.686292L22.1313 1.3934L28.5859 7.84803L0 7.84795L0.000345267 8.84819L28.5762 8.84801L22.1313 15.2929L22.8384 16L29.9904 8.84801H30.0001V8.83835L30.4953 8.34315L22.8384 0.686292Z" fill="white"/>
  </symbol>
  <symbol viewBox="0 0 31 16" fill="none" xmlns="http://www.w3.org/2000/svg" id="arrow-prev">
    <path d="M8.16158 0.686292L8.86869 1.3934L2.41405 7.84803L31 7.84795L30.9997 8.84819L2.42381 8.84801L8.86869 15.2929L8.16158 16L1.00959 8.84801H0.999926V8.83835L0.504726 8.34315L8.16158 0.686292Z" fill="white"/>
  </symbol>
  <symbol fill="none" xmlns="http://www.w3.org/2000/svg" viewBox="0 0 103 140" id="ag-tech">
    <path d="M16.1146 121.929C16.1146 122.074 16.0664 122.18 15.9796 122.257C15.8929 122.343 15.7772 122.382 15.6327 122.382H12.828C12.7027 122.382 12.5967 122.334 12.51 122.247C12.4232 122.16 12.3558 122.054 12.3269 121.929L11.1028 116.898H5.0117L3.78769 121.929C3.75878 122.054 3.69131 122.16 3.60457 122.247C3.51783 122.334 3.41181 122.382 3.28652 122.382H0.481894C0.337326 122.382 0.221671 122.343 0.13493 122.257C0.0481889 122.18 0 122.074 0 121.929C0 121.91 0.00963995 121.89 0.00963995 121.881C0.0192778 121.861 0.0289125 121.833 0.0289125 121.794L4.3756 105.178C4.52981 104.561 4.76112 104.08 5.05989 103.723C5.35867 103.376 5.68636 103.106 6.03332 102.913C6.37065 102.73 6.72725 102.615 7.09349 102.557C7.45009 102.509 7.77778 102.48 8.05728 102.48C8.33678 102.48 8.66446 102.509 9.02107 102.557C9.38731 102.615 9.74391 102.73 10.0812 102.913C10.4282 103.106 10.7462 103.376 11.0547 103.723C11.3534 104.08 11.5847 104.561 11.7389 105.178L16.0856 121.794C16.0856 121.833 16.0953 121.861 16.0953 121.881C16.1049 121.89 16.1146 121.91 16.1146 121.929ZM8.48134 106.007C8.44279 105.843 8.40424 105.737 8.34641 105.67C8.29822 105.612 8.20185 105.583 8.05728 105.583C7.91271 105.583 7.81633 105.612 7.76814 105.67C7.71031 105.737 7.67176 105.843 7.63321 106.007L5.72491 113.872H10.3896L8.48134 106.007Z" fill="#5C8EE6"></path>
    <path d="M29.2317 121.669C29.2317 121.861 29.1932 121.996 29.1161 122.064C29.0293 122.131 28.8944 122.189 28.7016 122.218C28.5089 122.276 28.2294 122.324 27.8631 122.363C27.5065 122.411 27.1114 122.449 26.6873 122.488C26.2633 122.526 25.8295 122.546 25.3862 122.565C24.9429 122.584 24.5477 122.594 24.1911 122.594C23.3333 122.594 22.5237 122.526 21.7816 122.382C21.0395 122.237 20.3938 121.967 19.8541 121.572C19.3047 121.177 18.871 120.618 18.5529 119.915C18.2349 119.211 18.071 118.295 18.071 117.158V103.222C18.071 103.077 18.1289 102.952 18.2349 102.846C18.3409 102.74 18.4662 102.692 18.6011 102.692H21.2226C21.3672 102.692 21.4925 102.74 21.5985 102.846C21.7045 102.952 21.7624 103.077 21.7624 103.222V117.158C21.7624 118.045 21.9069 118.642 22.2057 118.96C22.5045 119.279 23.0442 119.442 23.8249 119.442H28.7016C28.8462 119.442 28.9619 119.491 29.0679 119.597C29.1739 119.703 29.2317 119.828 29.2317 119.972V121.669Z" fill="#5C8EE6"></path>
    <path d="M35.4289 121.852C35.4289 121.996 35.3807 122.112 35.2747 122.218C35.1687 122.324 35.0434 122.382 34.8988 122.382H32.2773C32.1327 122.382 32.0171 122.324 31.9111 122.218C31.805 122.112 31.7472 121.996 31.7472 121.852V103.193C31.7472 103.058 31.805 102.933 31.9111 102.836C32.0171 102.74 32.1327 102.692 32.2773 102.692H34.8988C35.0434 102.692 35.1687 102.74 35.2747 102.836C35.3807 102.933 35.4289 103.058 35.4289 103.193V121.852Z" fill="#5C8EE6"></path>
    <path d="M54.03 121.929C54.03 122.074 53.9915 122.18 53.9047 122.257C53.818 122.343 53.7023 122.382 53.5578 122.382H50.7435C50.6278 122.382 50.5218 122.334 50.4351 122.247C50.3387 122.16 50.2809 122.054 50.2423 121.929L49.0279 116.898H42.9272L41.7128 121.929C41.6742 122.054 41.6164 122.16 41.5297 122.247C41.4333 122.334 41.3273 122.382 41.2116 122.382H38.3974C38.2624 122.382 38.1468 122.343 38.0504 122.257C37.9636 122.18 37.9251 122.074 37.9251 121.929C37.9251 121.91 37.9251 121.89 37.9347 121.881C37.9444 121.861 37.9444 121.833 37.9444 121.794L42.2911 105.178C42.4549 104.561 42.6862 104.08 42.985 103.723C43.2838 103.376 43.6018 103.106 43.9488 102.913C44.2957 102.73 44.6523 102.615 45.0089 102.557C45.3752 102.509 45.6932 102.48 45.9824 102.48C46.2619 102.48 46.5799 102.509 46.9462 102.557C47.3124 102.615 47.6594 102.73 48.0063 102.913C48.3533 103.106 48.6713 103.376 48.9701 103.723C49.2689 104.08 49.5002 104.561 49.664 105.178L54.0107 121.794C54.0107 121.833 54.0107 121.861 54.0204 121.881C54.03 121.89 54.03 121.91 54.03 121.929ZM46.4064 106.007C46.3679 105.843 46.3197 105.737 46.2715 105.67C46.2137 105.612 46.1173 105.583 45.9824 105.583C45.8378 105.583 45.7414 105.612 45.6836 105.67C45.6354 105.737 45.5872 105.843 45.5583 106.007L43.65 113.872H48.3147L46.4064 106.007Z" fill="#5C8EE6"></path>
    <path d="M71.4168 121.322C71.4168 121.621 71.3204 121.871 71.118 122.074C70.906 122.276 70.6554 122.382 70.3566 122.382H67.6773C67.3689 122.382 67.0701 122.343 66.7906 122.257C66.5207 122.18 66.2798 121.9 66.0677 121.428L60.179 108.523C60.1115 108.378 60.0344 108.311 59.9477 108.311C59.8513 108.311 59.8127 108.378 59.8127 108.523V121.852C59.8127 121.996 59.7646 122.112 59.6682 122.218C59.5718 122.324 59.4465 122.382 59.3116 122.382H57.0563C56.9117 122.382 56.7864 122.324 56.6804 122.218C56.5744 122.112 56.5262 121.996 56.5262 121.852V103.752C56.5262 103.453 56.6226 103.203 56.8346 103C57.037 102.798 57.2876 102.692 57.5864 102.692H60.4488C60.7283 102.692 60.9597 102.74 61.1235 102.846C61.2873 102.952 61.4512 103.183 61.615 103.54L67.7833 117.158C67.8411 117.303 67.9086 117.37 67.9953 117.37C68.0917 117.37 68.1302 117.293 68.1302 117.129V103.193C68.1302 102.856 68.3037 102.692 68.6314 102.692H70.9156C71.2529 102.692 71.4168 102.856 71.4168 103.193V121.322Z" fill="#5C8EE6"></path>
    <path d="M87.1072 121.563C87.1072 121.755 87.0494 121.89 86.9434 121.967C86.8374 122.054 86.7025 122.112 86.5193 122.17C86.4133 122.208 86.2398 122.247 85.9796 122.286C85.7194 122.334 85.411 122.372 85.0351 122.42C84.6689 122.469 84.2544 122.507 83.7918 122.536C83.3388 122.575 82.8473 122.594 82.3365 122.594C81.5462 122.594 80.6981 122.478 79.821 122.247C78.9343 122.016 78.1344 121.601 77.4019 120.994C76.6694 120.377 76.0719 119.558 75.59 118.507C75.1081 117.467 74.8671 116.127 74.8671 114.488V110.585C74.8671 108.927 75.1081 107.568 75.59 106.518C76.0719 105.467 76.6694 104.639 77.4019 104.041C78.1344 103.443 78.9343 103.029 79.821 102.807C80.6981 102.586 81.5462 102.48 82.3365 102.48C82.8473 102.48 83.3388 102.499 83.7918 102.528C84.2544 102.566 84.6689 102.605 85.0351 102.653C85.411 102.692 85.7194 102.74 85.9796 102.798C86.2398 102.846 86.4133 102.884 86.5193 102.904C86.7025 102.952 86.8374 103.019 86.9434 103.106C87.0494 103.183 87.1072 103.318 87.1072 103.511V105.284C87.1072 105.448 87.0687 105.583 86.9916 105.689C86.9049 105.795 86.7699 105.843 86.5772 105.843H86.5193C86.2977 105.824 86.0182 105.805 85.6905 105.776C85.3628 105.757 85.0158 105.728 84.6399 105.708C84.2737 105.699 83.8882 105.679 83.5027 105.66C83.1172 105.641 82.7413 105.631 82.3847 105.631C81.8257 105.631 81.3052 105.718 80.8426 105.882C80.3704 106.055 79.9656 106.325 79.6379 106.711C79.3006 107.087 79.0307 107.597 78.8379 108.233C78.6452 108.87 78.5488 109.65 78.5488 110.585V114.488C78.5488 115.404 78.6452 116.175 78.8379 116.811C79.0307 117.447 79.3006 117.968 79.6379 118.353C79.9656 118.739 80.3704 119.018 80.8426 119.192C81.3052 119.356 81.8257 119.442 82.3847 119.442C82.7413 119.442 83.1172 119.433 83.5027 119.413C83.8882 119.394 84.2737 119.375 84.6399 119.356C85.0158 119.346 85.3628 119.317 85.6905 119.298C86.0182 119.269 86.2977 119.25 86.5193 119.23H86.5772C86.7699 119.23 86.9049 119.279 86.9916 119.385C87.0687 119.491 87.1072 119.625 87.1072 119.78V121.563Z" fill="#5C8EE6"></path>
    <path d="M102.027 121.669C102.027 121.861 101.988 121.996 101.911 122.064C101.824 122.131 101.689 122.189 101.497 122.218C101.285 122.257 101.053 122.295 100.793 122.343C100.533 122.382 100.215 122.42 99.8389 122.459C99.463 122.498 99.0004 122.526 98.4607 122.555C97.921 122.584 97.2559 122.594 96.456 122.594C95.5982 122.594 94.7886 122.526 94.0465 122.382C93.3044 122.237 92.649 121.967 92.0997 121.572C91.5503 121.177 91.1166 120.618 90.7986 119.915C90.4709 119.211 90.3167 118.295 90.3167 117.158V107.915C90.3167 106.778 90.4709 105.863 90.7986 105.159C91.1166 104.446 91.5503 103.896 92.0997 103.501C92.649 103.106 93.3044 102.836 94.0465 102.692C94.7886 102.547 95.5982 102.48 96.456 102.48C97.2559 102.48 97.921 102.489 98.4607 102.518C99.0004 102.547 99.463 102.576 99.8389 102.615C100.215 102.644 100.533 102.692 100.793 102.73C101.053 102.778 101.285 102.817 101.497 102.846C101.689 102.884 101.824 102.942 101.911 103.01C101.988 103.077 102.027 103.212 102.027 103.405V105.101C102.027 105.246 101.969 105.371 101.863 105.477C101.757 105.583 101.641 105.631 101.497 105.631H96.0898C95.3091 105.631 94.7694 105.795 94.461 106.113C94.1525 106.431 93.9983 107.029 93.9983 107.915V110.778H101.179C101.323 110.778 101.439 110.826 101.545 110.932C101.651 111.038 101.709 111.163 101.709 111.308V113.216C101.709 113.351 101.651 113.477 101.545 113.583C101.439 113.689 101.323 113.746 101.179 113.746H93.9983V117.158C93.9983 118.045 94.1525 118.642 94.461 118.96C94.7694 119.279 95.3091 119.442 96.0898 119.442H101.497C101.641 119.442 101.757 119.491 101.863 119.597C101.969 119.703 102.027 119.828 102.027 119.972V121.669Z" fill="#5C8EE6"></path>
    <path d="M9.84993 131.23C9.84993 131.972 9.71499 132.598 9.45477 133.099C9.18491 133.61 8.82831 134.015 8.38496 134.333C7.93198 134.641 7.42118 134.853 6.83326 134.988C6.24535 135.114 5.62853 135.181 4.97315 135.181C4.74184 135.181 4.48162 135.171 4.19248 135.152C3.89371 135.143 3.65276 135.123 3.46 135.114V139.528C3.46 139.614 3.43109 139.692 3.37326 139.759C3.3058 139.827 3.2287 139.865 3.14195 139.865H1.45532C1.35894 139.865 1.28184 139.827 1.21438 139.759C1.14691 139.692 1.10836 139.614 1.10836 139.528V127.895C1.10836 127.731 1.15655 127.606 1.25292 127.538C1.3493 127.461 1.48424 127.413 1.65772 127.394C2.09142 127.326 2.60223 127.268 3.1805 127.23C3.75878 127.191 4.35633 127.172 4.97315 127.172C5.62853 127.172 6.24535 127.23 6.83326 127.355C7.42118 127.48 7.94162 127.692 8.38496 128.001C8.82831 128.3 9.18491 128.704 9.45477 129.206C9.71499 129.707 9.84993 130.333 9.84993 131.075V131.23ZM7.49828 131.066C7.49828 130.352 7.28624 129.851 6.86218 129.553C6.44775 129.244 5.81165 129.1 4.96351 129.1C4.87677 129.1 4.76112 129.1 4.61655 129.109C4.48162 129.109 4.33705 129.119 4.19248 129.128C4.03827 129.128 3.90335 129.138 3.77805 129.138C3.64312 129.148 3.53711 129.157 3.46 129.167V133.205C3.52747 133.205 3.63349 133.205 3.77805 133.215C3.91299 133.215 4.05755 133.225 4.21176 133.234C4.36596 133.234 4.51053 133.244 4.6551 133.244C4.79003 133.253 4.89605 133.253 4.96351 133.253C5.87911 133.253 6.52485 133.09 6.92001 132.743C7.30552 132.405 7.49828 131.895 7.49828 131.22V131.066Z" fill="#5C8EE6"></path>
    <path d="M20.8178 139.663C20.8178 139.798 20.7504 139.865 20.6154 139.865H18.5529C18.4662 139.865 18.3891 139.827 18.3505 139.759C18.3024 139.692 18.2542 139.614 18.2156 139.528L15.7772 135.027H15.5459C15.3146 135.027 15.064 135.017 14.7652 135.008C14.4761 134.988 14.2352 134.969 14.0424 134.959V139.528C14.0424 139.614 14.0039 139.692 13.946 139.759C13.8882 139.827 13.8111 139.865 13.7147 139.865H12.0281C11.9413 139.865 11.8642 139.827 11.7968 139.759C11.7293 139.692 11.6908 139.614 11.6908 139.528V127.895C11.6908 127.731 11.7389 127.606 11.8353 127.538C11.9317 127.461 12.0666 127.413 12.2305 127.394C12.6738 127.326 13.1846 127.268 13.7533 127.23C14.3315 127.191 14.9291 127.172 15.5556 127.172C16.2013 127.172 16.8278 127.239 17.4157 127.365C18.0036 127.5 18.5144 127.712 18.9577 128.001C19.4107 128.29 19.7673 128.685 20.0275 129.177C20.2974 129.668 20.4227 130.266 20.4227 130.989V131.143C20.4227 132.049 20.2203 132.772 19.8059 133.34C19.3914 133.899 18.8324 134.323 18.1289 134.593L20.7793 139.528C20.8082 139.557 20.8178 139.605 20.8178 139.663ZM18.0807 130.989C18.0807 130.352 17.8686 129.89 17.4446 129.61C17.0205 129.321 16.3844 129.186 15.5459 129.186C15.4495 129.186 15.3339 129.186 15.199 129.196C15.0544 129.196 14.9098 129.206 14.7652 129.206C14.6207 129.215 14.4857 129.215 14.3508 129.225C14.2255 129.234 14.1195 129.244 14.0424 129.254V133.051C14.1099 133.051 14.2159 133.051 14.3508 133.061C14.4954 133.07 14.64 133.07 14.7942 133.08C14.9484 133.08 15.0929 133.09 15.2279 133.099C15.3724 133.099 15.4785 133.099 15.5459 133.099C16.423 133.099 17.0687 132.964 17.4735 132.685C17.8783 132.396 18.0807 131.885 18.0807 131.143V130.989Z" fill="#5C8EE6"></path>
    <path d="M31.6605 134.728C31.6605 135.663 31.5448 136.463 31.3039 137.128C31.0533 137.793 30.7256 138.333 30.3015 138.757C29.8678 139.181 29.3667 139.489 28.7787 139.692C28.1908 139.894 27.5547 140 26.8512 140C26.1572 140 25.5211 139.894 24.9332 139.692C24.3453 139.489 23.8441 139.181 23.4104 138.757C22.9864 138.333 22.6587 137.793 22.4081 137.128C22.1671 136.463 22.0515 135.663 22.0515 134.728V132.444C22.0515 131.519 22.1671 130.719 22.4081 130.054C22.6587 129.379 22.9864 128.839 23.4104 128.415C23.8441 127.991 24.3453 127.683 24.9332 127.48C25.5211 127.278 26.1572 127.172 26.8512 127.172C27.5547 127.172 28.1908 127.278 28.7787 127.48C29.3667 127.683 29.8678 127.991 30.3015 128.415C30.7256 128.839 31.0533 129.379 31.3039 130.054C31.5448 130.719 31.6605 131.519 31.6605 132.444V134.728ZM29.3185 132.444C29.3185 131.316 29.1161 130.497 28.7113 129.986C28.3161 129.475 27.6897 129.215 26.8512 129.215C26.0223 129.215 25.3958 129.475 25.0007 129.986C24.5959 130.497 24.3935 131.316 24.3935 132.444V134.728C24.3935 135.856 24.5959 136.675 25.0007 137.186C25.3958 137.697 26.0223 137.957 26.8512 137.957C27.6897 137.957 28.3161 137.697 28.7113 137.186C29.1161 136.675 29.3185 135.856 29.3185 134.728V132.444Z" fill="#5C8EE6"></path>
    <path d="M42.9657 134.824C42.9657 136.501 42.5127 137.783 41.5875 138.67C40.6719 139.557 39.3611 140 37.6552 140C37.3468 140 37.0288 139.99 36.6914 139.981C36.3638 139.971 36.0361 139.952 35.7277 139.933C35.4192 139.904 35.1397 139.884 34.8892 139.865C34.6289 139.836 34.4362 139.817 34.3205 139.798C34.1663 139.769 34.0603 139.72 33.9832 139.643C33.9157 139.566 33.8772 139.441 33.8772 139.268V127.895C33.8772 127.731 33.9157 127.606 33.9832 127.529C34.0603 127.451 34.1663 127.394 34.3205 127.374C34.4362 127.355 34.6289 127.326 34.8892 127.307C35.1397 127.288 35.4192 127.259 35.7277 127.239C36.0361 127.22 36.3638 127.201 36.6914 127.191C37.0288 127.182 37.3468 127.172 37.6552 127.172C39.3611 127.172 40.6719 127.615 41.5875 128.502C42.5127 129.379 42.9657 130.661 42.9657 132.348V134.824ZM40.6237 132.348C40.6237 131.721 40.5466 131.191 40.3924 130.786C40.2382 130.372 40.0262 130.044 39.7659 129.803C39.4961 129.562 39.1877 129.389 38.8214 129.292C38.4552 129.196 38.06 129.148 37.6456 129.148C37.3275 129.148 37.0577 129.157 36.836 129.167C36.6047 129.177 36.4023 129.186 36.2288 129.196V137.986C36.4023 137.995 36.6047 138.005 36.836 138.024C37.0577 138.034 37.3275 138.034 37.6456 138.034C38.06 138.034 38.4552 137.986 38.8214 137.889C39.1877 137.803 39.4961 137.629 39.7659 137.388C40.0262 137.138 40.2382 136.819 40.3924 136.405C40.5466 135.991 40.6237 135.47 40.6237 134.834V132.348Z" fill="#5C8EE6"></path>
    <path d="M54.3577 135.22C54.3577 136.116 54.242 136.868 54.0107 137.475C53.7794 138.092 53.4614 138.574 53.0469 138.949C52.6325 139.325 52.141 139.586 51.5723 139.749C51.0037 139.913 50.3869 140 49.7122 140C49.0376 140 48.4111 139.913 47.8425 139.749C47.2738 139.586 46.7823 139.325 46.3679 138.949C45.9631 138.574 45.6451 138.092 45.4137 137.475C45.1824 136.868 45.0668 136.116 45.0668 135.22V127.625C45.0668 127.538 45.0957 127.461 45.1632 127.403C45.2306 127.336 45.3077 127.307 45.4041 127.307H47.0715C47.1678 127.307 47.2449 127.336 47.3124 127.403C47.3799 127.461 47.4088 127.538 47.4088 127.625V135.229C47.4088 135.711 47.4473 136.135 47.5148 136.492C47.5823 136.839 47.6979 137.138 47.881 137.378C48.0545 137.619 48.2858 137.793 48.575 137.899C48.8737 138.015 49.2496 138.072 49.7122 138.072C50.1556 138.072 50.5315 138.015 50.8302 137.899C51.129 137.793 51.37 137.619 51.5434 137.378C51.7169 137.138 51.8422 136.839 51.9097 136.492C51.9771 136.135 52.0061 135.711 52.0061 135.229V127.625C52.0061 127.538 52.0446 127.461 52.1121 127.403C52.1795 127.336 52.2566 127.307 52.3434 127.307H54.0204C54.1071 127.307 54.1842 127.336 54.2517 127.403C54.3191 127.461 54.3577 127.538 54.3577 127.625V135.22Z" fill="#5C8EE6"></path>
    <path d="M64.2751 139.335C64.2751 139.46 64.2462 139.547 64.1787 139.605C64.1112 139.653 64.0149 139.692 63.8992 139.73C63.8317 139.749 63.7161 139.778 63.5619 139.807C63.398 139.836 63.1956 139.855 62.9547 139.884C62.7234 139.913 62.4535 139.942 62.1644 139.961C61.8753 139.99 61.5572 140 61.2295 140C60.7283 140 60.1886 139.923 59.6296 139.778C59.061 139.634 58.5502 139.364 58.0876 138.978C57.6249 138.583 57.2394 138.063 56.931 137.398C56.6226 136.733 56.4684 135.875 56.4684 134.824V132.348C56.4684 131.287 56.6226 130.42 56.931 129.745C57.2394 129.08 57.6249 128.55 58.0876 128.165C58.5502 127.789 59.061 127.529 59.6296 127.384C60.1886 127.239 60.7283 127.172 61.2295 127.172C61.5572 127.172 61.8753 127.182 62.1644 127.211C62.4535 127.23 62.7234 127.259 62.9547 127.278C63.1956 127.307 63.398 127.345 63.5619 127.374C63.7161 127.413 63.8317 127.432 63.8992 127.442C64.0149 127.48 64.1112 127.519 64.1787 127.567C64.2462 127.615 64.2751 127.712 64.2751 127.827V128.965C64.2751 129.061 64.2462 129.148 64.198 129.215C64.1498 129.283 64.0631 129.321 63.9378 129.321H63.8992C63.7546 129.312 63.5812 129.292 63.3691 129.273C63.1667 129.263 62.9451 129.244 62.7041 129.234C62.4632 129.225 62.2222 129.215 61.9813 129.196C61.7307 129.186 61.4897 129.186 61.2681 129.186C60.9115 129.186 60.5741 129.234 60.2754 129.34C59.9766 129.447 59.726 129.63 59.514 129.871C59.2923 130.112 59.1285 130.43 59.0032 130.834C58.8779 131.249 58.82 131.75 58.82 132.348V134.824C58.82 135.412 58.8779 135.904 59.0032 136.318C59.1285 136.723 59.2923 137.051 59.514 137.292C59.726 137.542 59.9766 137.716 60.2754 137.822C60.5741 137.937 60.9115 137.986 61.2681 137.986C61.4897 137.986 61.7307 137.976 61.9813 137.966C62.2222 137.957 62.4632 137.947 62.7041 137.937C62.9451 137.928 63.1667 137.909 63.3691 137.889C63.5812 137.88 63.7546 137.86 63.8992 137.851H63.9378C64.0631 137.851 64.1498 137.889 64.198 137.957C64.2462 138.024 64.2751 138.101 64.2751 138.207V139.335Z" fill="#5C8EE6"></path>
    <path d="M74.4141 128.965C74.4141 129.051 74.3756 129.128 74.3081 129.186C74.2407 129.244 74.1636 129.263 74.0768 129.263H71.118V139.528C71.118 139.614 71.0891 139.692 71.0216 139.759C70.9541 139.827 70.8674 139.865 70.7807 139.865H69.1037C69.0169 139.865 68.9398 139.827 68.8724 139.759C68.8049 139.692 68.7663 139.614 68.7663 139.528V129.263H65.8172C65.7208 129.263 65.6437 129.244 65.5762 129.186C65.5087 129.128 65.4798 129.051 65.4798 128.965V127.625C65.4798 127.538 65.5087 127.461 65.5762 127.403C65.6437 127.336 65.7208 127.307 65.8172 127.307H74.0768C74.1636 127.307 74.2407 127.336 74.3081 127.403C74.3756 127.461 74.4141 127.538 74.4141 127.625V128.965Z" fill="#5C8EE6"></path>
    <path d="M78.4524 139.528C78.4524 139.614 78.4139 139.692 78.3464 139.759C78.2789 139.827 78.2018 139.865 78.1151 139.865H76.4381C76.3514 139.865 76.2743 139.827 76.2068 139.759C76.1393 139.692 76.1008 139.614 76.1008 139.528V127.625C76.1008 127.538 76.1393 127.461 76.2068 127.403C76.2743 127.336 76.3514 127.307 76.4381 127.307H78.1151C78.2018 127.307 78.2789 127.336 78.3464 127.403C78.4139 127.461 78.4524 127.538 78.4524 127.625V139.528Z" fill="#5C8EE6"></path>
    <path d="M90.2588 134.728C90.2588 135.663 90.1432 136.463 89.9022 137.128C89.6613 137.793 89.324 138.333 88.8999 138.757C88.4662 139.181 87.965 139.489 87.3771 139.692C86.7892 139.894 86.1531 140 85.4592 140C84.7556 140 84.1195 139.894 83.5316 139.692C82.9533 139.489 82.4425 139.181 82.0184 138.757C81.5847 138.333 81.257 137.793 81.0161 137.128C80.7752 136.463 80.6499 135.663 80.6499 134.728V132.444C80.6499 131.519 80.7752 130.719 81.0161 130.054C81.257 129.379 81.5847 128.839 82.0184 128.415C82.4425 127.991 82.9533 127.683 83.5316 127.48C84.1195 127.278 84.7556 127.172 85.4592 127.172C86.1531 127.172 86.7892 127.278 87.3771 127.48C87.965 127.683 88.4662 127.991 88.8999 128.415C89.324 128.839 89.6613 129.379 89.9022 130.054C90.1432 130.719 90.2588 131.519 90.2588 132.444V134.728ZM87.9168 132.444C87.9168 131.316 87.7144 130.497 87.3096 129.986C86.9145 129.475 86.288 129.215 85.4592 129.215C84.6207 129.215 84.0038 129.475 83.5991 129.986C83.1943 130.497 83.0015 131.316 83.0015 132.444V134.728C83.0015 135.856 83.1943 136.675 83.5991 137.186C84.0038 137.697 84.6207 137.957 85.4592 137.957C86.288 137.957 86.9145 137.697 87.3096 137.186C87.7144 136.675 87.9168 135.856 87.9168 134.728V132.444Z" fill="#5C8EE6"></path>
    <path d="M101.969 139.19C101.969 139.374 101.911 139.537 101.776 139.672C101.651 139.798 101.487 139.865 101.294 139.865H99.5883C99.3859 139.865 99.2028 139.836 99.0293 139.788C98.8462 139.74 98.692 139.557 98.5571 139.258L94.8079 131.027C94.7597 130.931 94.7115 130.892 94.6537 130.892C94.5959 130.892 94.5766 130.931 94.5766 131.027V139.528C94.5766 139.614 94.5381 139.692 94.4802 139.759C94.4128 139.827 94.3453 139.865 94.2489 139.865H92.8129C92.7261 139.865 92.649 139.827 92.5816 139.759C92.5141 139.692 92.4756 139.614 92.4756 139.528V127.982C92.4756 127.789 92.543 127.635 92.6683 127.5C92.8032 127.374 92.9575 127.307 93.1502 127.307H94.9814C95.1549 127.307 95.2995 127.345 95.4055 127.413C95.5115 127.48 95.6175 127.625 95.7235 127.847L99.6558 136.53C99.6943 136.627 99.7329 136.665 99.7907 136.665C99.8485 136.665 99.8774 136.617 99.8774 136.521V127.625C99.8774 127.413 99.9835 127.307 100.196 127.307H101.651C101.863 127.307 101.969 127.413 101.969 127.625V139.19Z" fill="#5C8EE6"></path>
    <path fill-rule="evenodd" clip-rule="evenodd" d="M50.9459 9.87884C55.5721 9.87884 59.9862 10.7848 64.0149 12.4329V44.0162C64.0149 51.1772 58.2129 56.9792 51.0519 56.9792C48.0063 56.9792 45.2113 55.9287 42.9946 54.1746V65.6533C45.5005 66.5882 48.2184 67.099 51.0519 67.099C65.1329 67.099 74.1828 55.9769 74.1828 42.4935V6.57304C67.4267 2.40947 59.4658 0 50.9459 0C26.4367 0 6.57304 19.8637 6.57304 44.3728C6.57304 58.3671 13.0497 70.8481 23.1695 78.9825V64.8437C18.9481 59.1188 16.4422 52.035 16.4422 44.3728C16.4422 25.3187 31.8918 9.87884 50.9459 9.87884Z" fill="#5C8EE6"></path>
    <path fill-rule="evenodd" clip-rule="evenodd" d="M51.0808 78.8958C46.4546 78.8958 42.0405 77.9898 38.0118 76.3321V44.7487C38.0118 37.5974 43.8138 31.7858 50.9748 31.7858C54.0204 31.7858 56.8154 32.8363 59.0321 34.6V23.1213C56.5262 22.1864 53.8083 21.6756 50.9748 21.6756C36.8938 21.6756 27.8342 32.7881 27.8342 46.2811V82.2016C34.6 86.3651 42.5609 88.7746 51.0808 88.7746C75.59 88.7746 95.4537 68.9013 95.4537 44.4018C95.4537 30.4075 88.977 17.9265 78.8476 9.7921V23.9309C83.0786 29.6558 85.5748 36.7396 85.5748 44.4018C85.5748 63.4559 70.1349 78.8958 51.0808 78.8958Z" fill="#5C8EE6"></path>
  </symbol>
  <symbol fill="none" xmlns="http://www.w3.org/2000/svg" viewBox="0 0 140 121" id="aliance-product">
    <path d="M98.0283 26.4162H84.4525L81.002 20.8727L74.3273 10.5212L58.4889 35.1273L51.1919 46.5535L45.2525 55.8303L37.9556 67.2L31.9596 76.4768L24.6626 87.903H11.1434L18.4404 76.4768L24.3798 67.2L31.6768 55.8303L37.6162 46.5535L67.5394 0H81.1152L87.7333 10.3515L94.5212 20.8727L98.0283 26.4162Z" fill="#828A99"></path>
    <path d="M137.511 87.903H37.2202L45.3091 76.4768L51.2485 67.2L58.5455 55.8303L64.5414 46.5535L71.8384 35.1273H103.685L110.982 46.5535H78.0606L72.1212 55.8303L64.8242 67.2L58.8848 76.4768H116.638L110.699 67.2H76.5899L84.1697 55.8303H116.921L124.275 67.2L130.214 76.4768L137.511 87.903Z" fill="#828A99"></path>
    <path d="M19.8545 120.089L18.2141 117.147H9.2202L11.4263 113.018H16.0646L12.7838 106.853L5.71313 120.089H0L9.84242 102.271C10.3515 101.309 11.1434 100.857 12.1616 100.857H13.3495C14.3111 100.857 15.103 101.309 15.6121 102.271L25.4545 120.089H19.8545Z" fill="#828A99"></path>
    <path d="M34.901 120.089C33.4303 120.089 32.0727 119.863 30.8283 119.41C29.5838 118.958 28.5091 118.279 27.604 117.43C26.699 116.638 25.9636 115.62 25.4545 114.432C24.9455 113.244 24.7192 111.943 24.7192 110.473C24.7192 109.059 24.9455 107.701 25.4545 106.57C25.9636 105.382 26.699 104.364 27.604 103.515C28.5091 102.667 29.5838 101.988 30.8283 101.535C32.0727 101.083 33.4303 100.857 34.901 100.857H45.196V105.778H34.5616C33.8828 105.778 33.2606 105.891 32.695 106.117C32.0727 106.343 31.6202 106.683 31.1677 107.079C30.7717 107.531 30.4323 107.984 30.2061 108.606C29.9798 109.172 29.8667 109.794 29.8667 110.473C29.8667 111.152 29.9798 111.774 30.2061 112.396C30.4323 112.962 30.7717 113.414 31.1677 113.81C31.6202 114.263 32.0727 114.545 32.695 114.772C33.2606 114.998 33.8828 115.111 34.5616 115.111H40.2747V112.509H34.0525V108.38H45.196V120.089H34.901Z" fill="#828A99"></path>
    <path d="M62.5051 120.089V105.778H55.3778V100.857H74.7232V105.778H67.6525V120.089H62.5051Z" fill="#828A99"></path>
    <path d="M83.8869 112.509V108.38H95.2566V112.509H83.8869ZM76.9859 120.089V100.857H95.4263V105.778H82.1333V115.111H95.4828V120.089H76.9859Z" fill="#828A99"></path>
    <path d="M108.097 120.089C106.57 120.089 105.212 119.863 103.968 119.41C102.723 118.958 101.648 118.279 100.8 117.43C99.895 116.638 99.1596 115.62 98.6505 114.432C98.1414 113.244 97.8586 111.943 97.8586 110.473C97.8586 109.059 98.1414 107.701 98.6505 106.57C99.1596 105.382 99.895 104.364 100.8 103.515C101.648 102.667 102.723 101.988 103.968 101.535C105.212 101.083 106.57 100.857 108.097 100.857H117.487V105.778H107.701C107.022 105.778 106.4 105.891 105.834 106.117C105.269 106.343 104.76 106.683 104.364 107.079C103.968 107.531 103.628 107.984 103.402 108.606C103.176 109.172 103.063 109.794 103.063 110.473C103.063 111.152 103.176 111.774 103.402 112.396C103.628 112.962 103.968 113.414 104.364 113.81C104.76 114.263 105.269 114.545 105.834 114.772C106.4 114.998 107.022 115.111 107.701 115.111H117.487V120.089H108.097Z" fill="#828A99"></path>
    <path d="M134.853 120.089V112.622H127.329V107.927H134.853V100.857H140V120.089H134.853ZM120.372 120.089V100.857H125.576V120.089H120.372Z" fill="#828A99"></path>
  </symbol>
</svg>


